<svg width="281" height="247" viewBox="0 0 281 247" fill="none" xmlns="http://www.w3.org/2000/svg">
<g filter="url(#filter0_i_157_10)">
<path fill-rule="evenodd" clip-rule="evenodd" d="M130.789 23.6854C147.431 10.7071 166.321 -1.9843 188.476 0.259379C201.13 1.54098 213.137 10.2536 211.299 24.3061C210.614 29.2868 207.996 33.7912 204.018 36.8314C200.493 39.5345 195.804 41.149 191.383 41.2666L191.386 69.6783C201.42 67.94 211.141 70.792 213.444 82.0988C213.953 84.5978 213.415 87.6279 212.067 89.7497C211.266 91.0476 208.714 92.7017 207.703 90.8582C207.756 89.899 209.048 89.6928 209.734 89.233C214.221 86.2312 212.188 78.2035 209.116 74.8123C206.543 71.8746 202.669 70.0447 198.677 69.7723C189.31 69.1332 180.208 74.3761 172.721 79.5663C172.425 79.7711 172.467 80.1366 172.446 80.456L172.154 79.9387C171.413 80.2969 169.715 81.5101 168.975 82.0137L162.896 86.1787C164.005 86.358 165.755 86.2821 166.306 86.9465L166.339 87.3403C165.445 88.2747 161.782 87.8543 160.354 87.8776C152.118 93.5422 144.937 97.492 136.023 101.702C144.764 117.128 166.711 123.221 182.465 115.607C190.545 111.702 197.481 104.906 199.787 95.9645C200.871 91.7576 201.187 87.0287 198.953 83.1159C197.687 80.8829 195.579 79.2599 193.107 78.6162C185.673 76.6045 178.159 82.2826 175.924 89.2735C175.708 89.9509 176.051 90.217 175.536 90.6711C175.516 87.583 177.907 83.912 180 81.7864C180.457 81.3311 180.923 80.8844 181.398 80.4469C181.389 79.1577 181.447 76.8999 181.346 75.6897C184.538 73.8658 187.884 72.6797 191.414 71.7369L191.361 77.2878C194.632 77.722 198.326 78.9768 200.163 81.8143C207.19 92.6641 199.01 106.03 190.477 112.491C172.952 125.758 146.348 120.93 135.234 102.069C127.194 105.183 119.183 108.189 110.448 108.48C107.099 108.592 103.404 108.208 100.318 106.868C97.095 105.469 95.6897 101.968 97.187 98.7501C98.2195 96.5311 100.303 95.3762 102.495 94.5713C108.838 92.3186 115.572 93.5775 121.619 96.1436C121.981 96.2974 122.248 96.4608 122.496 96.762L122.513 96.9426C121.08 96.4495 119.915 95.724 118.306 95.2822C112.933 93.8063 106.911 93.3502 101.767 95.7854C95.9712 98.5299 96.1398 105.092 102.306 106.854C111.679 109.53 126.293 105.486 134.828 101.388C132.567 96.5587 131.503 92.681 131.867 87.251C132.442 78.6991 138.021 71.4761 145.643 67.879C146.024 67.698 146.409 67.5287 146.799 67.3716C146.798 54.0414 146.937 40.3641 146.783 27.0591L127.323 74.6241L123.355 84.3715C123.014 85.2246 122.47 87.2045 121.849 87.6747C121.322 87.7291 121.179 87.7559 120.638 87.6483C119.951 86.6481 117.85 81.3742 117.208 79.956C114.193 73.2881 111.482 66.0735 108.395 59.4665C111.435 57.7367 113.86 56.2496 116.657 54.0864L125.146 74.2265L144.926 26.0094C145.533 24.5443 146.85 21.6111 147.302 20.1978C149.373 20.1972 165.611 20.0438 166.303 20.3704C166.415 20.7865 166.43 20.6075 166.206 21.0346C165.357 21.6391 163.372 21.7402 162.306 21.9883C159.381 22.669 157.807 24.8908 157.108 27.681C156.464 32.3406 156.641 37.8621 156.641 42.629L156.645 65.4082C165.885 66.1352 170.731 69.642 172.507 78.9436C175.31 77.0621 178.332 74.9483 181.367 73.5263L181.276 32.2568C174.622 33.9649 165.943 39.2409 164.78 46.6675C164.265 49.9598 164.956 53.8482 167.792 55.9175C171.489 58.6484 177.253 56.1154 175.93 51.1396C175.35 48.9599 172.24 51.4407 172.772 49.0687C174.093 47.5106 176.742 49.2406 176.898 51.3223C177.439 57.9366 168.936 59.8422 165.104 55.179C160.557 49.6662 162.852 42.0799 167.914 37.8265C175.016 31.7708 184.696 30.7222 193.181 27.7582C195.219 27.0458 199.821 25.0893 199.773 22.8368C199.71 19.9811 195.319 21.9599 194.284 23.2693C193.067 24.8066 192.879 25.008 192.155 26.6648C188.462 28.0561 184.776 28.7798 181.116 29.9539C180.127 22.9304 177.961 22.3997 171.833 21.2431C171.724 21.2223 171.719 20.5047 171.747 20.3428C172.722 19.9852 195.459 20.3022 198.225 20.2039C198.506 20.1939 199.485 20.2899 199.785 20.4559C200.203 20.6874 200.499 21.0189 200.65 21.4824C200.916 22.2996 200.635 23.4957 200.194 24.2054C198.531 26.8845 194.578 28.1583 191.798 29.0966C191.247 32.293 191.387 37.5382 191.389 40.9698C197.657 40.1366 202.788 38.4252 206.835 33.14C209.76 29.3372 211.057 24.5161 210.438 19.7468C208.28 3.58825 188.749 -0.0749717 175.545 2.0264C159.4 4.59577 143.338 14.1775 130.953 24.4568C135.041 42.7221 111.229 59.4674 95.7626 62.9811C95.4525 63.0518 95.141 63.1163 94.8285 63.1746C94.8176 68.7234 94.4062 75.0727 95.8204 80.3858C97.1853 85.5143 100.85 86.0152 105.271 86.6406C105.413 86.6606 105.383 87.5826 105.376 87.7117C104.14 88.3458 87.1305 87.5269 84.4939 87.904C84.0703 87.9646 82.8939 87.6872 82.523 87.3429L82.558 86.8819C83.5058 86.2891 84.7358 86.3799 85.7903 86.1825C89.3848 85.5096 91.4345 82.9227 92.1775 79.4744C93.2714 74.3977 92.8467 68.7947 92.906 63.5795C87.0854 64.0403 82.0898 63.7619 77.142 59.8781C77.0736 59.8245 77.022 59.7362 76.9757 59.6635C77.2856 59.7191 78.6206 60.5631 78.9598 60.7716C82.9778 63.2431 88.3882 63.3997 92.9063 62.6346L92.9284 57.1653C90.5325 58.1915 88.4691 58.9571 85.8883 59.103C80.4851 59.4081 75.0332 57.1586 71.6571 52.8594C70.9753 51.9912 70.4198 50.921 69.7043 50.0694C67.9298 48.1955 66.1127 46.4472 65.1666 43.967C59.515 29.1513 70.3112 12.8791 83.9868 7.35064C91.0358 4.50091 98.5271 3.92807 105.645 6.80861C110.21 8.68118 114.055 12.0358 115.962 16.6808C116.158 17.1688 116.339 17.6629 116.504 18.1624C123.223 15.2461 127.851 16.78 130.789 23.6854ZM172.029 79.2777C170.733 70.1834 164.305 66.099 155.515 66.4141C149.057 66.7567 142.999 69.673 138.68 74.5193C134.598 79.0386 132.512 85.0326 132.901 91.1289C133.116 94.9406 133.976 97.5951 135.624 101.002C142.887 97.8642 152.767 92.5328 159.227 87.8985C153.314 87.855 147.401 87.8456 141.488 87.8697C140.357 87.8906 138.119 88.0745 137.217 87.5587C136.913 87.1189 137.022 86.9609 137.387 86.5686C140.271 86.0864 142.921 86.3984 145.054 83.441C147.298 80.3287 146.823 73.8363 146.79 69.9405C149.959 68.3294 153.117 67.667 156.641 67.6864C156.629 73.816 155.245 83.3614 162.045 85.9544C165.34 83.9171 168.789 81.4602 172.029 79.2777ZM103.629 48.8732C100.898 51.3479 97.9611 54.187 94.8311 56.054L94.8329 62.1634C95.8836 61.9167 96.6469 61.734 97.6676 61.3803C101.521 60.0759 103.749 58.9415 107.298 57.02C106.927 56.1688 103.979 49.1158 103.629 48.8732ZM83.3425 21.3491C82.7864 21.3572 82.1578 21.3606 81.6108 21.4395C71.1961 23.3342 66.725 33.8969 68.4753 43.6367C68.8549 45.6878 69.533 47.6713 70.4876 49.5233C72.9548 51.0333 75.429 51.7312 78.3502 51.0375C80.747 50.4609 82.8195 48.952 84.1145 46.8413C85.3374 44.8291 85.7229 42.4127 85.1869 40.1162C83.3212 32.3089 71.5875 34.816 75.4067 43.1246C69.8089 38.7248 75.6423 32.3495 81.5463 34.429C86.1245 36.5932 87.4211 41.4379 85.2761 45.9179C84.0857 48.4459 81.926 50.3782 79.2925 51.2712C76.4071 52.2579 73.9851 51.8443 71.2319 50.7993C76.6003 58.459 84.6495 60.0869 92.8969 55.9997L92.8964 38.8548C92.8977 31.2477 94.4126 21.1887 83.3425 21.3491ZM94.8664 28.2873C94.69 36.8444 94.7578 46.3321 94.8366 54.9238C96.5741 53.7066 98.4718 52.3812 100.063 50.9773C101.175 50.0538 102.377 49.0121 103.509 48.133C101.296 43.4243 99.3725 38.4083 97.2634 33.6424C96.8527 32.7146 95.2766 28.8196 94.8664 28.2873ZM130.036 25.1523C125.425 28.8636 120.925 32.712 116.541 36.6923C115.226 37.8685 112.455 40.2137 111.335 41.409C112.282 43.8499 113.365 46.3385 114.383 48.7584L115.597 51.5378C122.621 45.0888 129.586 38.6842 130.372 28.1737C130.424 27.4665 130.343 25.7906 130.036 25.1523ZM105.868 8.20743C102.425 6.42119 98.5836 5.5529 94.7121 5.6861C78.4271 6.38222 63.9149 20.1371 64.4326 37.0528C64.572 41.6127 65.8581 45.1352 68.9962 48.4518C65.3631 38.143 67.4712 25.4039 78.8017 21.1755C82.5734 19.768 87.2852 20.1811 91.3011 20.1843L102.361 20.1954L104.194 24.6658C106.404 29.8436 108.732 35.8497 111.097 40.8382C117.513 35.2171 123.277 29.8092 129.962 24.3898C128.32 17.6571 122.686 15.7576 116.744 18.6052C117.421 21.6616 117.759 25.2052 116.093 28.1082C114.654 30.6144 111.038 30.7761 110.623 27.5357C110.236 24.5174 112.465 20.9052 114.963 19.2109C113.403 14.1991 110.53 10.6489 105.868 8.20743ZM114.971 19.7341C112.824 21.7252 109.346 26.3148 112.154 29.0011C114.743 29.2872 115.224 26.5605 115.499 24.5023C115.627 23.5458 115.58 20.4072 114.971 19.7341Z" fill="#797572"/>
<path d="M188.558 79.6365C189.315 79.5426 190.593 79.5835 191.393 79.5851C191.464 88.424 191.686 99.0788 183.986 105.101C179.485 108.62 173.699 109.537 168.143 108.881C162.194 108.178 156.006 104.668 156.824 97.6954C158.243 92.8433 163.312 91.7469 166.799 95.0467C170.45 98.5038 163.068 107.044 171.286 107.262C182.315 107.554 181.25 90.5324 181.426 82.5904C183.541 81.0012 185.93 79.9369 188.558 79.6365Z" fill="#797572"/>
<path d="M34.875 176.047C33.9219 176.047 33.2109 175.836 32.7422 175.414C32.2734 174.977 32.0391 174.445 32.0391 173.82C32.0391 173.367 32.2422 172.648 32.6484 171.664C33.0547 170.68 33.8984 169.219 35.1797 167.281C36.6797 165.047 38.3672 162.797 40.2422 160.531C42.1172 158.25 44.0312 156.039 45.9844 153.898C47.9531 151.758 49.8438 149.758 51.6562 147.898C53.4844 146.039 55.1016 144.414 56.5078 143.023C55.8047 143.523 55.0234 144.133 54.1641 144.852C53.3047 145.57 52.25 146.5 51 147.641C49.75 148.766 48.2109 150.188 46.3828 151.906C44.5547 153.625 42.3281 155.742 39.7031 158.258C38.3906 159.508 36.4844 161.422 33.9844 164C31.5 166.578 28.5781 169.828 25.2188 173.75C24.4062 174.703 23.8438 175.289 23.5312 175.508C23.2344 175.727 23 175.836 22.8281 175.836C22.7188 175.836 22.6016 175.758 22.4766 175.602C22.3672 175.445 22.3125 175.195 22.3125 174.852C22.3125 173.539 22.7656 171.82 23.6719 169.695C24.5781 167.555 25.8594 165.141 27.5156 162.453C29.1875 159.75 31.1641 156.891 33.4453 153.875C35.7266 150.859 38.2344 147.805 40.9688 144.711C40.0938 145.508 38.4922 147.109 36.1641 149.516C33.8516 151.922 30.6406 155.383 26.5312 159.898C22.9688 163.805 19.7656 166.961 16.9219 169.367C14.0781 171.758 11.5625 173.508 9.375 174.617C7.5 175.555 5.84375 176.023 4.40625 176.023C2.9375 176.023 1.83594 175.742 1.10156 175.18C0.367188 174.617 0 173.898 0 173.023C0 172.305 0.242188 171.773 0.726562 171.43C1.21094 171.07 1.69531 170.891 2.17969 170.891C2.42969 170.891 2.6875 170.977 2.95312 171.148C3.23438 171.32 3.375 171.594 3.375 171.969C3.375 172.266 3.24219 172.539 2.97656 172.789C2.71094 173.023 2.39844 173.141 2.03906 173.141C1.83594 173.141 1.63281 173.125 1.42969 173.094C1.24219 173.062 1.07031 172.992 0.914062 172.883C0.914062 172.945 0.90625 173 0.890625 173.047C0.890625 173.094 0.890625 173.133 0.890625 173.164C0.890625 173.836 1.1875 174.375 1.78125 174.781C2.375 175.188 3.24219 175.391 4.38281 175.391C5.53906 175.391 6.86719 175.047 8.36719 174.359C9.88281 173.672 11.6641 172.531 13.7109 170.938C15.7734 169.328 18.1953 167.164 20.9766 164.445C23.7578 161.727 27 158.344 30.7031 154.297C33.8125 150.906 36.3594 148.266 38.3438 146.375C40.3438 144.469 41.8438 143.133 42.8438 142.367C43.8594 141.602 44.4375 141.219 44.5781 141.219C44.6875 141.219 44.8203 141.242 44.9766 141.289C45.1328 141.32 45.2109 141.375 45.2109 141.453C45.2109 141.547 45.0938 141.695 44.8594 141.898C44.7031 142.039 44.5078 142.211 44.2734 142.414C44.0547 142.617 43.7812 142.883 43.4531 143.211C43.0469 143.648 42.4219 144.461 41.5781 145.648C40.75 146.82 39.7812 148.242 38.6719 149.914C37.5781 151.57 36.4062 153.367 35.1562 155.305C33.9219 157.242 32.6953 159.195 31.4766 161.164C30.2578 163.133 29.1094 165 28.0312 166.766C26.9688 168.531 26.0469 170.094 25.2656 171.453C24.5 172.797 23.9531 173.805 23.625 174.477C25.3281 172.508 26.8672 170.742 28.2422 169.18C29.6328 167.617 30.9609 166.156 32.2266 164.797C33.5078 163.422 34.8125 162.055 36.1406 160.695C37.4844 159.336 38.9531 157.891 40.5469 156.359C42.1406 154.812 43.9531 153.078 45.9844 151.156C48.6875 148.641 50.9375 146.656 52.7344 145.203C54.5469 143.734 55.9922 142.695 57.0703 142.086C58.1484 141.461 58.9297 141.148 59.4141 141.148C59.5703 141.148 59.6484 141.211 59.6484 141.336C59.6484 141.445 59.4453 141.641 59.0391 141.922C58.6328 142.203 58.1953 142.547 57.7266 142.953C56.1797 144.312 54.5 146.055 52.6875 148.18C50.8906 150.289 49.0469 152.602 47.1562 155.117C45.2656 157.633 43.3984 160.188 41.5547 162.781C39.7109 165.375 37.9766 167.828 36.3516 170.141C35.6172 171.219 35.0703 172.039 34.7109 172.602C34.3672 173.148 34.1484 173.547 34.0547 173.797C33.9609 174.031 33.9141 174.242 33.9141 174.43C33.9141 175.086 34.3672 175.414 35.2734 175.414C35.7266 175.414 36.3359 175.305 37.1016 175.086C37.8828 174.852 38.6953 174.523 39.5391 174.102C40.3828 173.664 41.1172 173.141 41.7422 172.531C41.8203 172.562 41.8594 172.664 41.8594 172.836C41.8594 173.07 41.8203 173.25 41.7422 173.375C41.0703 173.938 40.2969 174.422 39.4219 174.828C38.5469 175.219 37.7031 175.523 36.8906 175.742C36.0781 175.945 35.4062 176.047 34.875 176.047Z" fill="#3A5042"/>
<path d="M47.3203 176.047C46.3203 176.047 45.5859 175.773 45.1172 175.227C44.6641 174.68 44.4375 173.93 44.4375 172.977C44.4375 171.93 44.6562 170.812 45.0938 169.625C45.5469 168.438 46.2891 167.258 47.3203 166.086C49.4297 163.633 51.3984 162 53.2266 161.188C55.0703 160.359 56.7969 159.945 58.4062 159.945C59.2188 159.945 59.9062 160.117 60.4688 160.461C61.0312 160.805 61.3125 161.273 61.3125 161.867C61.3125 162.32 61.2188 162.781 61.0312 163.25C61.5312 162.656 61.9531 162.141 62.2969 161.703C62.6562 161.25 63 160.82 63.3281 160.414C63.7344 160.539 64.2031 160.602 64.7344 160.602C64.9531 160.602 65.25 160.594 65.625 160.578C66 160.562 66.2891 160.539 66.4922 160.508L58.5938 170.023C57.5938 171.211 56.875 172.18 56.4375 172.93C56 173.664 55.7812 174.234 55.7812 174.641C55.7812 175.141 56.0234 175.391 56.5078 175.391C57.3516 175.391 58.2266 175.148 59.1328 174.664C60.0391 174.164 60.9297 173.531 61.8047 172.766C62.6797 171.984 63.5 171.18 64.2656 170.352C65.0312 169.508 65.7031 168.734 66.2812 168.031C66.875 167.312 67.3281 166.781 67.6406 166.438L68.1094 166.836C67.7656 167.227 67.2812 167.789 66.6562 168.523C66.0312 169.258 65.3125 170.055 64.5 170.914C63.7031 171.773 62.8359 172.594 61.8984 173.375C60.9766 174.156 60.0234 174.797 59.0391 175.297C58.0703 175.797 57.1094 176.047 56.1562 176.047C54.5938 176.047 53.8125 175.562 53.8125 174.594C53.8125 174.234 53.875 173.875 54 173.516C54.1406 173.141 54.4141 172.664 54.8203 172.086C55.2266 171.492 55.8359 170.703 56.6484 169.719L56.4141 169.625C54.5078 171.969 52.7422 173.625 51.1172 174.594C49.5078 175.562 48.2422 176.047 47.3203 176.047ZM47.4141 175.344C48.4141 175.344 49.7344 174.766 51.375 173.609C53.0156 172.438 54.9844 170.492 57.2812 167.773C57.6562 167.32 58 166.898 58.3125 166.508C58.6406 166.117 58.9531 165.75 59.25 165.406C59.6094 164.859 59.9297 164.289 60.2109 163.695C60.5078 163.102 60.6562 162.562 60.6562 162.078C60.6562 161.594 60.4844 161.242 60.1406 161.023C59.7969 160.789 59.4219 160.672 59.0156 160.672C58.25 160.672 57.0078 161.227 55.2891 162.336C53.5859 163.43 51.7109 165.188 49.6641 167.609C48.4922 169.016 47.6484 170.266 47.1328 171.359C46.6172 172.453 46.3594 173.375 46.3594 174.125C46.3594 174.938 46.7109 175.344 47.4141 175.344Z" fill="#3A5042"/>
<path d="M77.0156 155.469C76.5938 155.469 76.25 155.336 75.9844 155.07C75.7188 154.789 75.5859 154.438 75.5859 154.016C75.5859 153.469 75.8203 152.969 76.2891 152.516C76.7578 152.047 77.3125 151.812 77.9531 151.812C78.3906 151.812 78.7344 151.961 78.9844 152.258C79.2344 152.539 79.3594 152.883 79.3594 153.289C79.3594 153.867 79.1094 154.375 78.6094 154.812C78.125 155.25 77.5938 155.469 77.0156 155.469ZM40.0781 194.445C39.4062 194.445 38.8906 194.273 38.5312 193.93C38.1719 193.586 37.9922 193.234 37.9922 192.875C37.9922 192.234 38.2656 191.539 38.8125 190.789C39.3438 190.055 40.2578 189.234 41.5547 188.328C42.8516 187.438 44.6172 186.43 46.8516 185.305C49.0703 184.195 51.8672 182.938 55.2422 181.531C55.9766 180.641 56.75 179.688 57.5625 178.672C58.375 177.656 59.2344 176.57 60.1406 175.414C60.6875 174.727 61.4219 173.797 62.3438 172.625C63.2656 171.453 64.2422 170.195 65.2734 168.852C66.3203 167.492 67.3125 166.188 68.25 164.938C69.1875 163.688 69.9609 162.625 70.5703 161.75C71.1797 160.875 71.4922 160.336 71.5078 160.133C71.6797 160.148 72.0625 160.164 72.6562 160.18C73.2656 160.18 73.7188 160.18 74.0156 160.18C74.5 160.18 74.8828 160.164 75.1641 160.133C74.0859 161.508 72.9375 162.984 71.7188 164.562C70.5156 166.125 69.0391 168.047 67.2891 170.328C65.8828 172.172 64.5625 173.875 63.3281 175.438C62.0781 176.984 60.9062 178.422 59.8125 179.75C61.7656 178.812 63.4844 177.914 64.9688 177.055C66.4688 176.195 67.8438 175.281 69.0938 174.312C70.3438 173.344 71.5703 172.234 72.7734 170.984C73.9766 169.719 75.2656 168.219 76.6406 166.484L77.1094 166.883C75.625 168.727 74.2344 170.312 72.9375 171.641C71.6406 172.953 70.3203 174.109 68.9766 175.109C67.6328 176.109 66.1562 177.055 64.5469 177.945C62.9375 178.852 61.0703 179.805 58.9453 180.805C56.4922 183.758 54.3672 186.133 52.5703 187.93C50.7734 189.742 49.1875 191.117 47.8125 192.055C46.4219 192.992 45.1172 193.625 43.8984 193.953C42.6641 194.281 41.3906 194.445 40.0781 194.445ZM40.1484 193.812C40.9922 193.812 41.8359 193.672 42.6797 193.391C43.5078 193.125 44.4453 192.602 45.4922 191.82C46.5391 191.055 47.7891 189.922 49.2422 188.422C50.6797 186.922 52.4141 184.945 54.4453 182.492C50.6953 184.086 47.6719 185.492 45.375 186.711C43.0625 187.945 41.3828 189.055 40.3359 190.039C39.2891 191.023 38.7656 191.969 38.7656 192.875C38.7656 193.047 38.875 193.242 39.0938 193.461C39.2969 193.695 39.6484 193.812 40.1484 193.812Z" fill="#3A5042"/>
<path d="M77.0156 176.047C76.0312 176.047 75.2891 175.773 74.7891 175.227C74.2891 174.68 74.0391 173.93 74.0391 172.977C74.0391 171.93 74.2656 170.812 74.7188 169.625C75.1875 168.438 75.9375 167.258 76.9688 166.086C79.0781 163.633 81.0781 162 82.9688 161.188C84.8594 160.359 86.5703 159.945 88.1016 159.945C88.7422 159.945 89.375 160.109 90 160.438C90.6406 160.75 90.9609 161.227 90.9609 161.867C90.9609 161.93 90.9531 161.992 90.9375 162.055C90.9375 162.117 90.9375 162.188 90.9375 162.266C92.1875 160.453 93.6641 158.32 95.3672 155.867C97.0703 153.398 98.9453 150.703 100.992 147.781C103.055 144.859 105.219 141.805 107.484 138.617C107.703 138.711 107.984 138.797 108.328 138.875C108.672 138.953 109.047 138.992 109.453 138.992C109.734 138.992 110.07 138.969 110.461 138.922L88.1953 170.141C87.2891 171.344 86.6016 172.305 86.1328 173.023C85.6797 173.742 85.4531 174.305 85.4531 174.711C85.4531 175.133 85.6484 175.344 86.0391 175.344C87.0703 175.344 88.1094 175.078 89.1562 174.547C90.2031 174 91.2031 173.32 92.1562 172.508C93.1094 171.68 93.9766 170.836 94.7578 169.977C95.5547 169.117 96.2188 168.367 96.75 167.727C97.2812 167.07 97.6328 166.656 97.8047 166.484L98.3203 166.883C98.1172 167.086 97.7266 167.523 97.1484 168.195C96.5859 168.867 95.875 169.648 95.0156 170.539C94.1719 171.414 93.2344 172.273 92.2031 173.117C91.1875 173.961 90.1172 174.664 88.9922 175.227C87.8828 175.773 86.7734 176.047 85.6641 176.047C84.8984 176.047 84.3516 175.898 84.0234 175.602C83.6953 175.305 83.5312 174.922 83.5312 174.453C83.5469 173.516 84.4844 171.938 86.3438 169.719L86.1562 169.625C84.0312 171.984 82.2109 173.648 80.6953 174.617C79.1953 175.57 77.9688 176.047 77.0156 176.047ZM77.1797 175.344C77.8047 175.344 78.5703 175.102 79.4766 174.617C80.3828 174.133 81.5547 173.242 82.9922 171.945C83.6016 171.367 84.2422 170.742 84.9141 170.07C85.5859 169.398 86.2812 168.633 87 167.773C87.2188 167.508 87.5547 167.055 88.0078 166.414C88.4766 165.758 89.0469 164.945 89.7188 163.977C90.0781 163.227 90.2578 162.594 90.2578 162.078C90.2578 161.594 90.0703 161.242 89.6953 161.023C89.3203 160.789 88.9141 160.672 88.4766 160.672C87.7109 160.672 86.5078 161.234 84.8672 162.359C83.2422 163.469 81.4062 165.234 79.3594 167.656C78.1875 169.078 77.3359 170.328 76.8047 171.406C76.2734 172.469 76.0078 173.375 76.0078 174.125C76.0078 174.938 76.3984 175.344 77.1797 175.344Z" fill="#3A5042"/>
<path d="M97.6172 176.047C96.6172 176.047 95.8828 175.773 95.4141 175.227C94.9609 174.68 94.7344 173.93 94.7344 172.977C94.7344 171.93 94.9531 170.812 95.3906 169.625C95.8438 168.438 96.5859 167.258 97.6172 166.086C99.7266 163.633 101.695 162 103.523 161.188C105.367 160.359 107.094 159.945 108.703 159.945C109.516 159.945 110.203 160.117 110.766 160.461C111.328 160.805 111.609 161.273 111.609 161.867C111.609 162.32 111.516 162.781 111.328 163.25C111.828 162.656 112.25 162.141 112.594 161.703C112.953 161.25 113.297 160.82 113.625 160.414C114.031 160.539 114.5 160.602 115.031 160.602C115.25 160.602 115.547 160.594 115.922 160.578C116.297 160.562 116.586 160.539 116.789 160.508L108.891 170.023C107.891 171.211 107.172 172.18 106.734 172.93C106.297 173.664 106.078 174.234 106.078 174.641C106.078 175.141 106.32 175.391 106.805 175.391C107.648 175.391 108.523 175.148 109.43 174.664C110.336 174.164 111.227 173.531 112.102 172.766C112.977 171.984 113.797 171.18 114.562 170.352C115.328 169.508 116 168.734 116.578 168.031C117.172 167.312 117.625 166.781 117.938 166.438L118.406 166.836C118.062 167.227 117.578 167.789 116.953 168.523C116.328 169.258 115.609 170.055 114.797 170.914C114 171.773 113.133 172.594 112.195 173.375C111.273 174.156 110.32 174.797 109.336 175.297C108.367 175.797 107.406 176.047 106.453 176.047C104.891 176.047 104.109 175.562 104.109 174.594C104.109 174.234 104.172 173.875 104.297 173.516C104.438 173.141 104.711 172.664 105.117 172.086C105.523 171.492 106.133 170.703 106.945 169.719L106.711 169.625C104.805 171.969 103.039 173.625 101.414 174.594C99.8047 175.562 98.5391 176.047 97.6172 176.047ZM97.7109 175.344C98.7109 175.344 100.031 174.766 101.672 173.609C103.312 172.438 105.281 170.492 107.578 167.773C107.953 167.32 108.297 166.898 108.609 166.508C108.938 166.117 109.25 165.75 109.547 165.406C109.906 164.859 110.227 164.289 110.508 163.695C110.805 163.102 110.953 162.562 110.953 162.078C110.953 161.594 110.781 161.242 110.438 161.023C110.094 160.789 109.719 160.672 109.312 160.672C108.547 160.672 107.305 161.227 105.586 162.336C103.883 163.43 102.008 165.188 99.9609 167.609C98.7891 169.016 97.9453 170.266 97.4297 171.359C96.9141 172.453 96.6562 173.375 96.6562 174.125C96.6562 174.938 97.0078 175.344 97.7109 175.344Z" fill="#3A5042"/>
<path d="M175.031 181.391C173.266 181.391 171.766 181.023 170.531 180.289C169.312 179.57 168.703 178.578 168.703 177.312C168.703 176.625 168.93 176.086 169.383 175.695C169.852 175.289 170.328 175.086 170.812 175.086C171.047 175.086 171.297 175.172 171.562 175.344C171.844 175.516 171.984 175.797 171.984 176.188C171.984 176.484 171.852 176.75 171.586 176.984C171.32 177.219 171.008 177.336 170.648 177.336C170.492 177.336 170.328 177.328 170.156 177.312C170 177.297 169.852 177.258 169.711 177.195C169.664 177.352 169.641 177.516 169.641 177.688C169.641 178.547 170.164 179.273 171.211 179.867C172.273 180.477 173.594 180.781 175.172 180.781C177.359 180.781 179.93 179.648 182.883 177.383C185.852 175.133 188.867 171.781 191.93 167.328C193.102 165.594 194.312 163.836 195.562 162.055C196.828 160.258 198.008 158.641 199.102 157.203C196.555 159.844 194.375 161.875 192.562 163.297C190.766 164.703 189.273 165.672 188.086 166.203C186.898 166.734 185.969 167 185.297 167C184.422 167 183.789 166.734 183.398 166.203C183.023 165.656 182.836 165.094 182.836 164.516C182.836 163.531 183.164 162.359 183.82 161C184.492 159.641 185.391 158.211 186.516 156.711C187.656 155.195 188.914 153.734 190.289 152.328C191.945 150.703 193.164 149.461 193.945 148.602C194.742 147.727 195.258 147.078 195.492 146.656C195.727 146.219 195.844 145.859 195.844 145.578C195.844 143.875 194.312 143.023 191.25 143.023C189.797 143.023 188.305 143.289 186.773 143.82C185.242 144.352 183.766 145.062 182.344 145.953C180.938 146.844 179.672 147.82 178.547 148.883C177.422 149.93 176.531 150.992 175.875 152.07C175.219 153.148 174.891 154.133 174.891 155.023C174.891 156.352 175.602 157.016 177.023 157.016C178.008 157.016 179.047 156.68 180.141 156.008C181.25 155.336 182.336 154.484 183.398 153.453C184.477 152.406 185.461 151.336 186.352 150.242C187.242 149.148 187.977 148.164 188.555 147.289C189.133 146.398 189.469 145.781 189.562 145.438C189.672 145.219 189.75 145.109 189.797 145.109C189.922 145.109 190.008 145.242 190.055 145.508C190.148 146.383 189.914 147.375 189.352 148.484C188.789 149.578 188.016 150.68 187.031 151.789C186.047 152.898 184.961 153.93 183.773 154.883C182.586 155.82 181.391 156.578 180.188 157.156C179 157.719 177.93 158 176.977 158C176.055 158 175.359 157.75 174.891 157.25C174.438 156.734 174.211 156.062 174.211 155.234C174.211 154.188 174.547 153.078 175.219 151.906C175.891 150.734 176.805 149.586 177.961 148.461C179.133 147.336 180.453 146.312 181.922 145.391C183.391 144.469 184.922 143.734 186.516 143.188C188.125 142.641 189.703 142.367 191.25 142.367C192.828 142.367 194.188 142.633 195.328 143.164C196.469 143.695 197.039 144.586 197.039 145.836C197.039 146.648 196.852 147.547 196.477 148.531C196.102 149.516 195.406 150.664 194.391 151.977C193.375 153.273 191.898 154.805 189.961 156.57C188.07 158.414 186.57 160.031 185.461 161.422C184.352 162.797 183.797 163.914 183.797 164.773C183.797 165.227 183.922 165.617 184.172 165.945C184.422 166.273 184.82 166.438 185.367 166.438C185.883 166.438 186.602 166.227 187.523 165.805C188.461 165.383 189.656 164.625 191.109 163.531C192.578 162.438 194.359 160.898 196.453 158.914C198.547 156.914 201 154.344 203.812 151.203C205.5 149.297 207.031 147.93 208.406 147.102C209.797 146.258 210.805 145.836 211.43 145.836C211.695 145.836 211.828 145.93 211.828 146.117C211.828 146.242 211.703 146.336 211.453 146.398L210.773 146.633C208.836 147.398 206.828 149.078 204.75 151.672C202.672 154.25 200.445 157.781 198.07 162.266C195.93 166.281 193.531 169.719 190.875 172.578C188.234 175.422 185.539 177.602 182.789 179.117C180.039 180.633 177.453 181.391 175.031 181.391Z" fill="#3A5042"/>
<path d="M200.18 176.047C199.18 176.047 198.445 175.773 197.977 175.227C197.523 174.68 197.297 173.93 197.297 172.977C197.297 171.93 197.516 170.812 197.953 169.625C198.406 168.438 199.148 167.258 200.18 166.086C202.289 163.633 204.258 162 206.086 161.188C207.93 160.359 209.656 159.945 211.266 159.945C212.078 159.945 212.766 160.117 213.328 160.461C213.891 160.805 214.172 161.273 214.172 161.867C214.172 162.32 214.078 162.781 213.891 163.25C214.391 162.656 214.812 162.141 215.156 161.703C215.516 161.25 215.859 160.82 216.188 160.414C216.594 160.539 217.062 160.602 217.594 160.602C217.812 160.602 218.109 160.594 218.484 160.578C218.859 160.562 219.148 160.539 219.352 160.508L211.453 170.023C210.453 171.211 209.734 172.18 209.297 172.93C208.859 173.664 208.641 174.234 208.641 174.641C208.641 175.141 208.883 175.391 209.367 175.391C210.211 175.391 211.086 175.148 211.992 174.664C212.898 174.164 213.789 173.531 214.664 172.766C215.539 171.984 216.359 171.18 217.125 170.352C217.891 169.508 218.562 168.734 219.141 168.031C219.734 167.312 220.188 166.781 220.5 166.438L220.969 166.836C220.625 167.227 220.141 167.789 219.516 168.523C218.891 169.258 218.172 170.055 217.359 170.914C216.562 171.773 215.695 172.594 214.758 173.375C213.836 174.156 212.883 174.797 211.898 175.297C210.93 175.797 209.969 176.047 209.016 176.047C207.453 176.047 206.672 175.562 206.672 174.594C206.672 174.234 206.734 173.875 206.859 173.516C207 173.141 207.273 172.664 207.68 172.086C208.086 171.492 208.695 170.703 209.508 169.719L209.273 169.625C207.367 171.969 205.602 173.625 203.977 174.594C202.367 175.562 201.102 176.047 200.18 176.047ZM200.273 175.344C201.273 175.344 202.594 174.766 204.234 173.609C205.875 172.438 207.844 170.492 210.141 167.773C210.516 167.32 210.859 166.898 211.172 166.508C211.5 166.117 211.812 165.75 212.109 165.406C212.469 164.859 212.789 164.289 213.07 163.695C213.367 163.102 213.516 162.562 213.516 162.078C213.516 161.594 213.344 161.242 213 161.023C212.656 160.789 212.281 160.672 211.875 160.672C211.109 160.672 209.867 161.227 208.148 162.336C206.445 163.43 204.57 165.188 202.523 167.609C201.352 169.016 200.508 170.266 199.992 171.359C199.477 172.453 199.219 173.375 199.219 174.125C199.219 174.938 199.57 175.344 200.273 175.344Z" fill="#3A5042"/>
<path d="M219.141 176.539C218.656 176.539 218.031 176.477 217.266 176.352C216.5 176.227 215.82 175.961 215.227 175.555C214.617 175.148 214.312 174.516 214.312 173.656C214.312 172.875 214.555 172.234 215.039 171.734C215.508 171.219 216.031 170.836 216.609 170.586C217.188 170.336 217.617 170.211 217.898 170.211C218.539 170.211 218.859 170.508 218.859 171.102C218.844 171.352 218.664 171.586 218.32 171.805C217.992 172.008 217.625 172.109 217.219 172.109C217.031 172.109 216.852 172.047 216.68 171.922C216.492 171.781 216.344 171.68 216.234 171.617C216.062 171.789 215.805 172.047 215.461 172.391C215.102 172.719 214.922 173.148 214.922 173.68C214.922 174.273 215.164 174.719 215.648 175.016C216.117 175.297 216.648 175.484 217.242 175.578C217.836 175.656 218.289 175.695 218.602 175.695C219.258 175.695 220.078 175.438 221.062 174.922C222.047 174.391 222.961 173.508 223.805 172.273C224.664 171.039 225.219 169.359 225.469 167.234C225.547 166.484 225.617 165.445 225.68 164.117C225.758 162.789 226.008 161.516 226.43 160.297C226.445 160.25 226.453 160.18 226.453 160.086C225.859 160.82 225.219 161.609 224.531 162.453C223.844 163.297 223.18 164.109 222.539 164.891C221.914 165.672 221.375 166.336 220.922 166.883C220.609 167.258 220.383 167.5 220.242 167.609C220.102 167.719 220.039 167.773 220.055 167.773C220.039 167.773 219.977 167.781 219.867 167.797C219.773 167.797 219.695 167.742 219.633 167.633C219.602 167.555 219.672 167.406 219.844 167.188C220.031 166.969 220.227 166.734 220.43 166.484C220.789 166.078 221.344 165.43 222.094 164.539C222.844 163.648 223.633 162.695 224.461 161.68C225.305 160.664 226.031 159.766 226.641 158.984C226.734 158.516 226.875 158.094 227.062 157.719C227.25 157.344 227.516 157.156 227.859 157.156C228.484 157.156 228.797 157.414 228.797 157.93C228.781 158.227 228.422 158.781 227.719 159.594C227.297 160.094 227.07 160.422 227.039 160.578C227.008 160.719 226.992 160.906 226.992 161.141C226.977 161.703 227.031 162.406 227.156 163.25C227.297 164.078 227.445 164.953 227.602 165.875C227.758 166.781 227.859 167.648 227.906 168.477C227.953 169.711 227.812 170.781 227.484 171.688C227.734 171.719 227.945 171.734 228.117 171.734C228.617 171.734 229.188 171.508 229.828 171.055C230.484 170.602 231.133 170.062 231.773 169.438C232.414 168.812 232.969 168.219 233.438 167.656C233.922 167.094 234.242 166.703 234.398 166.484L234.914 166.883C234.648 167.164 234.258 167.602 233.742 168.195C233.227 168.773 232.641 169.383 231.984 170.023C231.328 170.648 230.656 171.188 229.969 171.641C229.297 172.078 228.656 172.297 228.047 172.297C227.906 172.297 227.773 172.297 227.648 172.297C227.523 172.281 227.398 172.266 227.273 172.25C226.539 173.875 225.453 175 224.016 175.625C222.578 176.234 220.953 176.539 219.141 176.539Z" fill="#3A5042"/>
<path d="M233.109 176.539C232.625 176.539 232 176.477 231.234 176.352C230.469 176.227 229.789 175.961 229.195 175.555C228.586 175.148 228.281 174.516 228.281 173.656C228.281 172.875 228.523 172.234 229.008 171.734C229.477 171.219 230 170.836 230.578 170.586C231.156 170.336 231.586 170.211 231.867 170.211C232.508 170.211 232.828 170.508 232.828 171.102C232.812 171.352 232.633 171.586 232.289 171.805C231.961 172.008 231.594 172.109 231.188 172.109C231 172.109 230.82 172.047 230.648 171.922C230.461 171.781 230.312 171.68 230.203 171.617C230.031 171.789 229.773 172.047 229.43 172.391C229.07 172.719 228.891 173.148 228.891 173.68C228.891 174.273 229.133 174.719 229.617 175.016C230.086 175.297 230.617 175.484 231.211 175.578C231.805 175.656 232.258 175.695 232.57 175.695C233.227 175.695 234.047 175.438 235.031 174.922C236.016 174.391 236.93 173.508 237.773 172.273C238.633 171.039 239.188 169.359 239.438 167.234C239.516 166.484 239.586 165.445 239.648 164.117C239.727 162.789 239.977 161.516 240.398 160.297C240.414 160.25 240.422 160.18 240.422 160.086C239.828 160.82 239.188 161.609 238.5 162.453C237.812 163.297 237.148 164.109 236.508 164.891C235.883 165.672 235.344 166.336 234.891 166.883C234.578 167.258 234.352 167.5 234.211 167.609C234.07 167.719 234.008 167.773 234.023 167.773C234.008 167.773 233.945 167.781 233.836 167.797C233.742 167.797 233.664 167.742 233.602 167.633C233.57 167.555 233.641 167.406 233.812 167.188C234 166.969 234.195 166.734 234.398 166.484C234.758 166.078 235.312 165.43 236.062 164.539C236.812 163.648 237.602 162.695 238.43 161.68C239.273 160.664 240 159.766 240.609 158.984C240.703 158.516 240.844 158.094 241.031 157.719C241.219 157.344 241.484 157.156 241.828 157.156C242.453 157.156 242.766 157.414 242.766 157.93C242.75 158.227 242.391 158.781 241.688 159.594C241.266 160.094 241.039 160.422 241.008 160.578C240.977 160.719 240.961 160.906 240.961 161.141C240.945 161.703 241 162.406 241.125 163.25C241.266 164.078 241.414 164.953 241.57 165.875C241.727 166.781 241.828 167.648 241.875 168.477C241.922 169.711 241.781 170.781 241.453 171.688C241.703 171.719 241.914 171.734 242.086 171.734C242.586 171.734 243.156 171.508 243.797 171.055C244.453 170.602 245.102 170.062 245.742 169.438C246.383 168.812 246.938 168.219 247.406 167.656C247.891 167.094 248.211 166.703 248.367 166.484L248.883 166.883C248.617 167.164 248.227 167.602 247.711 168.195C247.195 168.773 246.609 169.383 245.953 170.023C245.297 170.648 244.625 171.188 243.938 171.641C243.266 172.078 242.625 172.297 242.016 172.297C241.875 172.297 241.742 172.297 241.617 172.297C241.492 172.281 241.367 172.266 241.242 172.25C240.508 173.875 239.422 175 237.984 175.625C236.547 176.234 234.922 176.539 233.109 176.539Z" fill="#3A5042"/>
<path d="M250.102 176.141C248.57 176.141 247.477 175.742 246.82 174.945C246.164 174.148 245.82 173.172 245.789 172.016C245.773 171.172 245.945 170.234 246.305 169.203C246.664 168.172 247.039 167.383 247.43 166.836C248.586 165.227 249.836 163.914 251.18 162.898C252.523 161.883 253.836 161.141 255.117 160.672C256.414 160.188 257.555 159.945 258.539 159.945C259.492 159.945 260.156 160.102 260.531 160.414C260.922 160.727 261.125 161.086 261.141 161.492C261.188 162.102 260.859 162.812 260.156 163.625C259.469 164.422 258.258 165.289 256.523 166.227C254.789 167.164 252.367 168.148 249.258 169.18C248.711 170.055 248.344 170.812 248.156 171.453C247.969 172.078 247.875 172.641 247.875 173.141C247.875 173.875 248.117 174.445 248.602 174.852C249.102 175.258 249.688 175.461 250.359 175.461C251.828 175.461 253.203 175.188 254.484 174.641C255.781 174.078 256.961 173.375 258.023 172.531C259.102 171.688 260.047 170.836 260.859 169.977C261.672 169.102 262.336 168.344 262.852 167.703C263.367 167.047 263.711 166.641 263.883 166.484L264.375 166.883C264.141 167.086 263.742 167.531 263.18 168.219C262.633 168.906 261.93 169.695 261.07 170.586C260.227 171.477 259.25 172.344 258.141 173.188C257.031 174.031 255.797 174.734 254.438 175.297C253.094 175.859 251.648 176.141 250.102 176.141ZM249.797 168.359C252.828 167.297 255.219 166.203 256.969 165.078C258.719 163.938 259.594 162.852 259.594 161.82C259.594 160.945 259.188 160.508 258.375 160.508C257.328 160.508 256.195 161.07 254.977 162.195C253.758 163.32 252.336 164.953 250.711 167.094C250.367 167.531 250.062 167.953 249.797 168.359Z" fill="#3A5042"/>
<path d="M267.656 176.047C266.781 176.047 266.07 175.828 265.523 175.391C264.977 174.938 264.703 174.352 264.703 173.633C264.703 172.383 265.617 170.875 267.445 169.109C269.273 167.344 271.75 165.414 274.875 163.32C273.281 163.055 271.906 162.789 270.75 162.523C269.609 162.258 268.695 161.969 268.008 161.656C267.695 162.281 267.242 163.047 266.648 163.953C266.055 164.859 265.297 165.836 264.375 166.883C263.75 167.617 263.281 168.133 262.969 168.43C262.656 168.727 262.438 168.906 262.312 168.969C262.203 169.016 262.141 169.055 262.125 169.086C262.078 169.102 262.047 169.055 262.031 168.945C262.031 168.836 262.039 168.75 262.055 168.688C262.055 168.625 262.172 168.477 262.406 168.242C262.641 168.008 263.133 167.422 263.883 166.484C264.664 165.5 265.359 164.562 265.969 163.672C266.578 162.781 267.047 162 267.375 161.328C266.812 160.969 266.484 160.57 266.391 160.133C266.266 159.383 266.414 158.703 266.836 158.094C267.258 157.484 267.805 157.18 268.477 157.18C269.305 157.18 269.719 157.539 269.719 158.258C269.719 158.617 269.648 158.922 269.508 159.172C269.367 159.422 269.227 159.664 269.086 159.898C268.805 160.227 268.664 160.641 268.664 161.141C268.664 161.297 268.93 161.469 269.461 161.656C270.008 161.828 270.672 162 271.453 162.172C272.25 162.328 273.031 162.469 273.797 162.594C274.562 162.703 275.164 162.773 275.602 162.805C275.898 162.82 276.078 162.875 276.141 162.969C276.219 163.047 276.258 163.109 276.258 163.156C276.258 163.312 276.031 163.57 275.578 163.93C274.719 164.586 273.836 165.383 272.93 166.32C272.023 167.242 271.18 168.203 270.398 169.203C269.617 170.188 268.984 171.117 268.5 171.992C268.016 172.867 267.773 173.586 267.773 174.148C267.773 174.883 268.07 175.25 268.664 175.25C269.43 175.25 270.266 174.992 271.172 174.477C272.078 173.961 272.992 173.312 273.914 172.531C274.852 171.75 275.727 170.945 276.539 170.117C277.367 169.273 278.078 168.523 278.672 167.867C279.266 167.195 279.68 166.734 279.914 166.484L280.383 166.883C280.039 167.211 279.547 167.734 278.906 168.453C278.281 169.156 277.547 169.945 276.703 170.82C275.859 171.68 274.938 172.508 273.938 173.305C272.953 174.102 271.93 174.758 270.867 175.273C269.805 175.789 268.734 176.047 267.656 176.047Z" fill="#3A5042"/>
<path d="M141.212 175.632C139.25 175.632 137.628 175.12 136.348 174.096C134.94 172.965 134.236 171.451 134.236 169.552C134.236 168.933 134.311 168.389 134.46 167.92C135.015 165.936 136.114 164.336 137.756 163.12C139.314 161.989 141.17 161.307 143.324 161.072C142.663 160.368 142.332 159.589 142.332 158.736C142.332 157.307 142.994 156.155 144.316 155.28C145.468 154.512 146.791 154.128 148.284 154.128C150.759 154.128 151.996 154.981 151.996 156.688C151.996 157.349 151.74 157.936 151.228 158.448C150.716 158.96 150.13 159.216 149.468 159.216C149.106 159.216 148.786 159.141 148.508 158.992C148.146 158.8 147.964 158.544 147.964 158.224C147.964 158.16 147.986 158.064 148.028 157.936C148.028 157.808 148.071 157.744 148.156 157.744C148.22 157.744 148.252 157.787 148.252 157.872C148.252 157.936 148.242 158 148.22 158.064C148.178 158.149 148.156 158.213 148.156 158.256C148.156 158.661 148.37 158.864 148.796 158.864C149.436 158.864 150.012 158.672 150.524 158.288C151.079 157.861 151.356 157.328 151.356 156.688C151.356 155.984 151.068 155.429 150.492 155.024C150.002 154.661 149.383 154.48 148.636 154.48C147.207 154.48 145.991 154.917 144.988 155.792C143.943 156.709 143.42 157.872 143.42 159.28C143.42 159.984 143.591 160.571 143.932 161.04C144.06 161.04 144.188 161.04 144.316 161.04C144.444 161.019 144.572 161.008 144.7 161.008C147.068 161.008 148.252 161.339 148.252 162C148.252 162.427 147.868 162.64 147.1 162.64C145.906 162.64 144.828 162.288 143.868 161.584C139.751 162.331 137.234 164.453 136.316 167.952C136.167 168.464 136.092 169.04 136.092 169.68C136.092 171.301 136.615 172.635 137.66 173.68C138.706 174.661 140.06 175.152 141.724 175.152C143.73 175.152 145.575 174.512 147.26 173.232C149.074 171.824 149.98 170.149 149.98 168.208C149.98 166.331 148.882 165.392 146.684 165.392C146.023 165.392 145.362 165.467 144.7 165.616C144.06 165.765 143.41 166 142.748 166.32C142.364 166.491 142.012 166.704 141.692 166.96C141.372 167.195 141.074 167.461 140.796 167.76C140.178 168.507 139.868 169.243 139.868 169.968C139.868 170.608 140.082 171.141 140.508 171.568C140.935 171.995 141.468 172.208 142.108 172.208C142.812 172.208 143.431 172.048 143.964 171.728C144.604 171.365 144.924 170.864 144.924 170.224C144.924 170.032 144.988 169.936 145.116 169.936C145.287 169.936 145.372 170.096 145.372 170.416C145.372 171.12 144.999 171.696 144.252 172.144C143.655 172.507 142.962 172.688 142.172 172.688C141.212 172.688 140.434 172.325 139.836 171.6C139.26 170.896 138.972 170.075 138.972 169.136C138.972 167.259 139.847 165.904 141.596 165.072C142.556 164.624 143.986 164.4 145.884 164.4C146.994 164.4 148.636 164.496 150.812 164.688C152.988 164.88 154.62 164.976 155.708 164.976C159.1 164.976 160.796 164.229 160.796 162.736C160.796 161.904 160.338 161.413 159.42 161.264C159.228 161.221 159.132 161.125 159.132 160.976C159.132 160.784 159.228 160.688 159.42 160.688C159.911 160.688 160.37 160.901 160.796 161.328C161.159 161.755 161.34 162.224 161.34 162.736C161.34 162.779 161.34 162.832 161.34 162.896C161.34 162.96 161.33 163.013 161.308 163.056C160.967 164.72 159.111 165.552 155.74 165.552C155.015 165.552 153.991 165.52 152.668 165.456C151.943 165.413 151.324 165.381 150.812 165.36C150.3 165.339 149.884 165.328 149.564 165.328C150.652 165.84 151.196 166.832 151.196 168.304C151.196 170.501 150.044 172.325 147.74 173.776C145.714 175.013 143.538 175.632 141.212 175.632ZM146.62 162.32C147.282 162.32 147.612 162.181 147.612 161.904C147.612 161.541 147.132 161.36 146.172 161.36C145.874 161.36 145.564 161.371 145.244 161.392C144.946 161.413 144.647 161.445 144.348 161.488C145.01 162.043 145.767 162.32 146.62 162.32Z" fill="#3A5042"/>
<path d="M97.6248 243.04L97.5768 242.68C97.5128 242.184 97.4088 241.816 97.2648 241.576C97.1368 241.352 96.9048 241.2 96.5688 241.12C96.2328 241.04 95.7208 241 95.0328 241H91.4088V240.544L92.9928 239.008C93.9688 238.064 94.7128 237.288 95.2248 236.68C95.7528 236.072 96.1128 235.528 96.3048 235.048C96.4968 234.568 96.5928 234.056 96.5928 233.512C96.5928 232.696 96.3608 232.048 95.8968 231.568C95.4328 231.072 94.8168 230.824 94.0488 230.824C93.2488 230.824 92.5928 231.056 92.0808 231.52C91.5848 231.968 91.3368 232.552 91.3368 233.272C91.3368 233.72 91.4728 234.152 91.7448 234.568C92.0328 234.984 92.3768 235.264 92.7768 235.408L92.5368 235.936C91.9448 235.696 91.4728 235.328 91.1208 234.832C90.7688 234.336 90.5928 233.792 90.5928 233.2C90.5928 232.608 90.7608 232.08 91.0968 231.616C91.4328 231.152 91.8888 230.784 92.4648 230.512C93.0408 230.24 93.6968 230.104 94.4328 230.104C95.6648 230.104 96.6488 230.392 97.3848 230.968C98.1368 231.528 98.5128 232.28 98.5128 233.224C98.5128 233.96 98.2008 234.744 97.5768 235.576C96.9528 236.408 95.9208 237.408 94.4808 238.576L92.7288 239.992L92.5128 239.536L98.3448 239.152L98.2248 240.16L98.2008 243.04H97.6248Z" fill="#797572"/>
<path d="M108.999 241.22C108.225 241.22 107.599 241.06 107.119 240.74C106.639 240.42 106.399 240 106.399 239.48C106.399 239.16 106.492 238.9 106.679 238.7C106.879 238.5 107.125 238.4 107.419 238.4C107.685 238.4 107.905 238.48 108.079 238.64C108.252 238.8 108.339 239 108.339 239.24C108.339 239.307 108.332 239.38 108.319 239.46C108.305 239.54 108.272 239.64 108.219 239.76C108.152 239.907 108.119 240.04 108.119 240.16C108.119 240.547 108.352 240.74 108.819 240.74C109.272 240.74 109.632 240.54 109.899 240.14C110.165 239.74 110.299 239.207 110.299 238.54V229.46C110.299 228.86 110.259 228.413 110.179 228.12C110.112 227.827 109.959 227.627 109.719 227.52C109.479 227.413 109.099 227.333 108.579 227.28L108.179 227.24V226.74L111.139 226.8H111.159L114.119 226.74V227.24L113.719 227.28C113.212 227.333 112.832 227.42 112.579 227.54C112.339 227.647 112.179 227.847 112.099 228.14C112.032 228.42 111.999 228.86 111.999 229.46V238.18C111.999 239.167 111.745 239.92 111.239 240.44C110.732 240.96 109.985 241.22 108.999 241.22Z" fill="#A1A79F"/>
<path d="M119.832 241.22C118.952 241.22 118.272 240.993 117.792 240.54C117.312 240.087 117.072 239.453 117.072 238.64V234.36C117.072 233.773 116.952 233.36 116.712 233.12C116.485 232.867 116.085 232.74 115.512 232.74H115.312V232.28C115.859 232.293 116.392 232.28 116.912 232.24C117.432 232.2 117.952 232.133 118.472 232.04V238.56C118.472 239.2 118.632 239.7 118.952 240.06C119.285 240.407 119.745 240.58 120.332 240.58C120.945 240.58 121.512 240.38 122.032 239.98C122.565 239.58 122.979 239.033 123.272 238.34L123.752 238.44C123.619 238.76 123.479 239.04 123.332 239.28C123.185 239.507 123.025 239.713 122.852 239.9C122.079 240.78 121.072 241.22 119.832 241.22ZM123.272 241.18V234.36C123.272 233.773 123.152 233.36 122.912 233.12C122.685 232.867 122.285 232.74 121.712 232.74H121.512V232.28C122.059 232.293 122.592 232.28 123.112 232.24C123.632 232.2 124.152 232.133 124.672 232.04V238.78C124.672 239.447 124.792 239.907 125.032 240.16C125.272 240.413 125.705 240.54 126.332 240.54V241C125.825 241 125.399 241 125.052 241C124.719 241.013 124.412 241.033 124.132 241.06C123.865 241.087 123.579 241.127 123.272 241.18Z" fill="#A1A79F"/>
<path d="M127.238 241.06V240.6L127.558 240.56C127.998 240.507 128.318 240.433 128.518 240.34C128.718 240.233 128.844 240.047 128.898 239.78C128.964 239.513 128.998 239.113 128.998 238.58V228.88C128.998 228.28 128.878 227.86 128.638 227.62C128.398 227.38 127.978 227.26 127.378 227.26H127.238V226.8C127.904 226.8 128.478 226.787 128.958 226.76C129.451 226.72 129.931 226.653 130.398 226.56V238.58C130.398 239.113 130.424 239.513 130.478 239.78C130.544 240.047 130.678 240.233 130.878 240.34C131.091 240.433 131.411 240.507 131.838 240.56L132.158 240.6V241.06L129.698 241L127.238 241.06Z" fill="#A1A79F"/>
<path d="M133.705 246.88C133.278 246.88 132.932 246.78 132.665 246.58C132.398 246.393 132.265 246.147 132.265 245.84C132.265 245.573 132.365 245.347 132.565 245.16C132.765 244.973 133.012 244.88 133.305 244.88C133.438 244.88 133.552 244.9 133.645 244.94C133.738 244.98 133.865 245.053 134.025 245.16C134.185 245.28 134.318 245.36 134.425 245.4C134.545 245.453 134.658 245.48 134.765 245.48C135.072 245.48 135.352 245.36 135.605 245.12C135.858 244.893 136.098 244.533 136.325 244.04L140.885 234.22C141.112 233.74 141.165 233.393 141.045 233.18C140.938 232.967 140.632 232.833 140.125 232.78L139.805 232.74V232.28L141.725 232.34L143.325 232.28V232.74L143.025 232.78C142.638 232.833 142.325 232.973 142.085 233.2C141.858 233.413 141.612 233.813 141.345 234.4L136.825 244.26C136.425 245.127 135.965 245.78 135.445 246.22C134.925 246.66 134.345 246.88 133.705 246.88ZM137.785 241.52L134.325 233.92C134.152 233.533 133.978 233.26 133.805 233.1C133.632 232.94 133.412 232.84 133.145 232.8L132.685 232.74V232.28L134.765 232.34L136.785 232.28V232.74L136.505 232.78C136.065 232.833 135.798 232.96 135.705 233.16C135.625 233.36 135.685 233.68 135.885 234.12L138.545 239.96L137.785 241.52Z" fill="#A1A79F"/>
<path d="M156.067 242.7L156.027 242.4C155.974 241.987 155.887 241.68 155.767 241.48C155.661 241.293 155.467 241.167 155.187 241.1C154.907 241.033 154.481 241 153.907 241H150.887V240.62L152.207 239.34C153.021 238.553 153.641 237.907 154.067 237.4C154.507 236.893 154.807 236.44 154.967 236.04C155.127 235.64 155.207 235.213 155.207 234.76C155.207 234.08 155.014 233.54 154.627 233.14C154.241 232.727 153.727 232.52 153.087 232.52C152.421 232.52 151.874 232.713 151.447 233.1C151.034 233.473 150.827 233.96 150.827 234.56C150.827 234.933 150.941 235.293 151.167 235.64C151.407 235.987 151.694 236.22 152.027 236.34L151.827 236.78C151.334 236.58 150.941 236.273 150.647 235.86C150.354 235.447 150.207 234.993 150.207 234.5C150.207 234.007 150.347 233.567 150.627 233.18C150.907 232.793 151.287 232.487 151.767 232.26C152.247 232.033 152.794 231.92 153.407 231.92C154.434 231.92 155.254 232.16 155.867 232.64C156.494 233.107 156.807 233.733 156.807 234.52C156.807 235.133 156.547 235.787 156.027 236.48C155.507 237.173 154.647 238.007 153.447 238.98L151.987 240.16L151.807 239.78L156.667 239.46L156.567 240.3L156.547 242.7H156.067Z" fill="#A1A79F"/>
<path d="M163.301 241.22C162.514 241.22 161.808 241.02 161.181 240.62C160.568 240.207 160.081 239.653 159.721 238.96C159.374 238.253 159.201 237.453 159.201 236.56C159.201 235.667 159.381 234.873 159.741 234.18C160.101 233.487 160.588 232.94 161.201 232.54C161.828 232.127 162.528 231.92 163.301 231.92C164.088 231.92 164.788 232.127 165.401 232.54C166.014 232.94 166.501 233.487 166.861 234.18C167.221 234.873 167.401 235.667 167.401 236.56C167.401 237.453 167.221 238.253 166.861 238.96C166.514 239.653 166.028 240.207 165.401 240.62C164.788 241.02 164.088 241.22 163.301 241.22ZM163.301 240.72C164.168 240.72 164.801 240.38 165.201 239.7C165.601 239.02 165.801 237.973 165.801 236.56C165.801 235.133 165.601 234.087 165.201 233.42C164.801 232.753 164.168 232.42 163.301 232.42C162.448 232.42 161.814 232.753 161.401 233.42C161.001 234.087 160.801 235.133 160.801 236.56C160.801 237.973 161.001 239.02 161.401 239.7C161.814 240.38 162.448 240.72 163.301 240.72Z" fill="#A1A79F"/>
<path d="M175.266 242.7L175.226 242.4C175.172 241.987 175.086 241.68 174.966 241.48C174.859 241.293 174.666 241.167 174.386 241.1C174.106 241.033 173.679 241 173.106 241H170.086V240.62L171.406 239.34C172.219 238.553 172.839 237.907 173.266 237.4C173.706 236.893 174.006 236.44 174.166 236.04C174.326 235.64 174.406 235.213 174.406 234.76C174.406 234.08 174.212 233.54 173.826 233.14C173.439 232.727 172.926 232.52 172.286 232.52C171.619 232.52 171.072 232.713 170.646 233.1C170.232 233.473 170.026 233.96 170.026 234.56C170.026 234.933 170.139 235.293 170.366 235.64C170.606 235.987 170.892 236.22 171.226 236.34L171.026 236.78C170.532 236.58 170.139 236.273 169.846 235.86C169.552 235.447 169.406 234.993 169.406 234.5C169.406 234.007 169.546 233.567 169.826 233.18C170.106 232.793 170.486 232.487 170.966 232.26C171.446 232.033 171.992 231.92 172.606 231.92C173.632 231.92 174.452 232.16 175.066 232.64C175.692 233.107 176.006 233.733 176.006 234.52C176.006 235.133 175.746 235.787 175.226 236.48C174.706 237.173 173.846 238.007 172.646 238.98L171.186 240.16L171.006 239.78L175.866 239.46L175.766 240.3L175.746 242.7H175.266Z" fill="#A1A79F"/>
<path d="M182.64 241.22C181.306 241.22 180.3 240.687 179.62 239.62C178.94 238.553 178.6 236.973 178.6 234.88C178.6 233.533 178.793 232.313 179.18 231.22C179.58 230.127 180.16 229.26 180.92 228.62C181.68 227.98 182.606 227.66 183.7 227.66C184.406 227.66 184.98 227.793 185.42 228.06C185.86 228.313 186.08 228.653 186.08 229.08C186.08 229.347 185.993 229.567 185.82 229.74C185.66 229.913 185.446 230 185.18 230C184.98 230 184.806 229.947 184.66 229.84C184.513 229.733 184.406 229.593 184.34 229.42L184.24 229.14C184.026 228.513 183.653 228.2 183.12 228.2C182.626 228.2 182.18 228.407 181.78 228.82C181.393 229.233 181.073 229.787 180.82 230.48C180.566 231.16 180.38 231.92 180.26 232.76C180.153 233.6 180.126 234.447 180.18 235.3L179.96 235C180.266 234.293 180.693 233.753 181.24 233.38C181.8 233.007 182.446 232.82 183.18 232.82C183.873 232.82 184.486 232.993 185.02 233.34C185.553 233.687 185.966 234.167 186.26 234.78C186.566 235.38 186.72 236.08 186.72 236.88C186.72 237.733 186.546 238.487 186.2 239.14C185.853 239.793 185.373 240.307 184.76 240.68C184.16 241.04 183.453 241.22 182.64 241.22ZM182.62 240.72C183.126 240.72 183.566 240.56 183.94 240.24C184.313 239.907 184.6 239.44 184.8 238.84C185.013 238.24 185.12 237.54 185.12 236.74C185.12 235.66 184.926 234.827 184.54 234.24C184.166 233.64 183.633 233.34 182.94 233.34C182.166 233.34 181.54 233.7 181.06 234.42C180.58 235.127 180.34 236.06 180.34 237.22C180.34 237.94 180.433 238.567 180.62 239.1C180.806 239.62 181.066 240.02 181.4 240.3C181.746 240.58 182.153 240.72 182.62 240.72Z" fill="#A1A79F"/>
</g>
<defs>
<filter id="filter0_i_157_10" x="0" y="0" width="280.383" height="248.88" filterUnits="userSpaceOnUse" color-interpolation-filters="sRGB">
<feFlood flood-opacity="0" result="BackgroundImageFix"/>
<feBlend mode="normal" in="SourceGraphic" in2="BackgroundImageFix" result="shape"/>
<feColorMatrix in="SourceAlpha" type="matrix" values="0 0 0 0 0 0 0 0 0 0 0 0 0 0 0 0 0 0 127 0" result="hardAlpha"/>
<feOffset dy="4"/>
<feGaussianBlur stdDeviation="1"/>
<feComposite in2="hardAlpha" operator="arithmetic" k2="-1" k3="1"/>
<feColorMatrix type="matrix" values="0 0 0 0 0 0 0 0 0 0 0 0 0 0 0 0 0 0 0.25 0"/>
<feBlend mode="normal" in2="shape" result="effect1_innerShadow_157_10"/>
</filter>
</defs>
</svg>
