<svg width="360" height="247" viewBox="0 0 360 247" fill="none" xmlns="http://www.w3.org/2000/svg">
<path d="M108.452 43.3213C108.152 42.2357 108.107 40.4127 108.11 39.31C108.127 32.1218 111.005 25.1971 117.774 21.9438C122.763 19.546 127.418 20.0342 132.731 20.0485C136.297 20.0344 139.863 20.0407 143.428 20.0673C146.309 26.9363 149.111 33.8475 152.169 40.6391C152.169 40.6391 152.407 40.8108 152.43 40.8273L152.597 41.1514C152.459 41.6968 156.264 50.2477 156.771 51.7159C159.825 48.8066 162.812 46.1185 165.517 42.8175C169.067 38.4874 171.47 33.4368 171.713 27.7783C171.749 26.9449 171.574 25.6915 171.488 24.8247C171.137 25.2096 170.645 25.6392 170.255 25.9993L169.837 25.5393C170.243 25.1633 170.93 24.6273 171.371 24.263C171.135 23.647 170.985 23.2795 170.853 22.6235C170.746 22.0876 170.643 21.832 170.904 21.3662C171.327 21.9066 171.775 22.9932 172.046 23.6564C172.715 23.2406 174.153 22.0778 174.517 21.9092L174.936 22.2605C174.069 22.9148 173.061 23.7169 172.177 24.323C172.579 25.4416 172.654 26.5618 172.686 27.7428C173.138 44.2629 154.788 56.9624 140.99 61.8616C139.309 62.4585 137.583 62.919 135.828 63.2385C135.837 68.6388 134.976 80.2625 138.965 84.2369C139.705 84.9745 140.592 85.5086 141.578 85.8555C142.488 86.1757 146.368 86.6116 146.685 87.36C146.607 87.546 146.537 87.7117 146.296 87.7464C142.064 88.3546 137.318 87.8702 133.037 87.9607C130.208 88.0205 128.153 87.9088 125.384 87.9665C124.819 87.9664 124.061 87.8502 123.628 87.4697L123.57 87.2084C123.886 86.7729 124.476 86.6151 125.007 86.5902C134.855 86.1274 133.819 75.1089 133.866 68.0789C133.871 67.4488 133.944 64.0169 133.746 63.7356C133.471 63.6343 133.428 63.6542 133.126 63.6799C132.108 63.4633 131.223 63.4783 130.19 63.461C130.735 63.4137 131.571 63.3988 132.024 63.1503L132.001 63.0398C132.311 62.9261 133.556 62.7922 133.943 62.752C133.797 61.145 133.862 58.8674 133.868 57.2011C130.929 58.7541 127.055 59.3989 123.757 59.0308C119.608 58.5696 115.775 56.5987 112.994 53.496C112.035 52.4134 111.271 51.2095 110.373 50.0913C109.554 49.0706 108.679 48.2307 107.845 47.1875L108.475 47.0159C108.915 47.6344 109.299 48.0412 109.81 48.5954C109.646 47.9892 109.327 47.1895 109.107 46.5842C108.98 45.6832 108.632 44.3109 108.452 43.3213ZM114.573 51.0797C119.334 52.0254 123.511 50.2763 125.582 45.8006C127.123 42.3685 126.468 37.4979 122.679 35.8305C121.281 35.2176 119.694 35.1933 118.278 35.7629C117.12 36.2326 116.274 37.0688 115.82 38.2172C114.935 40.4524 115.73 41.1561 116.137 43.0667C111.66 39.2376 114.781 34.2099 119.794 34.0229C121.632 33.941 123.424 34.608 124.758 35.8701C127.385 38.3471 127.844 42.9328 126.097 46.0219C124.895 48.4998 122.757 50.4021 120.15 51.3121C117.941 52.0656 115.485 52.1243 113.293 51.2704C112.88 51.2127 112.224 50.9279 111.814 50.7687C114.553 54.1918 117.376 56.8224 121.784 57.8574C126.4 58.9411 129.561 57.869 133.87 56.1792C133.703 47.6531 133.995 39.0649 133.798 30.5224C133.51 18.0816 118.994 19.2638 113.022 26.8683C109.258 31.66 108.512 36.4687 108.992 42.4093C109.106 43.5685 109.467 44.9152 109.741 46.0653C111.046 49.4981 110.935 49.8574 114.573 51.0797ZM144.63 48.8489C142.552 51.4162 138.477 54.1619 135.874 56.1716C135.831 58.0165 135.971 60.6622 135.861 62.3697C136.743 62.039 137.793 61.8153 138.502 61.5437C140.986 60.6206 146.257 58.5436 148.541 57.0884C147.628 55.6412 145.423 49.3958 144.63 48.8489ZM135.9 28.3503C135.743 30.3426 135.844 33.1211 135.839 35.1905L135.842 48.9531C135.842 50.4377 135.956 53.6825 135.829 55.0124C137.39 53.9198 138.9 52.8854 140.37 51.6684C141.106 51.0705 143.951 48.6576 144.609 48.2558C143.405 45.3522 141.916 42.1046 140.7 39.2118C140.108 37.8038 136.353 28.6482 135.9 28.3503Z" fill="#797572"/>
<path d="M116.137 43.0667C111.66 39.2376 114.781 34.2099 119.794 34.0229C121.632 33.941 123.424 34.608 124.758 35.8701C127.385 38.3471 127.844 42.9328 126.097 46.0219L125.582 45.8006C127.123 42.3685 126.468 37.4979 122.679 35.8305C121.281 35.2176 119.694 35.1933 118.278 35.7629C117.12 36.2326 116.274 37.0688 115.82 38.2172C114.935 40.4524 115.73 41.1561 116.137 43.0667Z" fill="#797572"/>
<path d="M125.582 45.8006L126.097 46.0219C124.895 48.4998 122.757 50.4021 120.15 51.3121C117.941 52.0656 115.485 52.1243 113.293 51.2704L113.418 51.1191C113.717 50.9484 114.199 51.046 114.573 51.0797C119.334 52.0254 123.511 50.2763 125.582 45.8006Z" fill="#797572"/>
<path d="M108.992 42.4093C109.106 43.5685 109.467 44.9152 109.741 46.0653C109.493 46.4747 109.581 46.3508 109.107 46.5842C108.98 45.6832 108.632 44.3109 108.452 43.3213C108.616 42.9114 108.668 42.7112 108.992 42.4093Z" fill="#797572"/>
<path d="M222.008 83.723C222.977 84.0427 224.361 86.2466 226.157 86.1887C226.771 86.1689 229.68 86.8995 230.072 87.3494L230 87.5301C229.1 88.0146 228.467 87.9313 227.444 87.943C224.799 88.0106 222.148 87.8962 219.536 87.9709C220.357 86.1197 220.811 85.387 222.008 83.723Z" fill="#797572"/>
<path d="M226.976 39.9528L227.029 39.8848C227.751 38.9311 228.698 37.1244 229.301 35.9753C231.212 32.3313 233.795 29.2378 233.348 24.9053C232.961 21.1668 227.41 22.065 226.767 20.6414C227.189 20.0777 228.355 20.0479 229.037 20.0492C234.64 20.0597 240.244 20.042 245.846 20.0616C246.248 20.063 246.723 20.1573 247.093 20.3175L247.233 20.4911C246.877 21.4557 242.755 22.2556 241.432 23.2795C237.17 26.5809 234.628 31.2695 231.975 35.8431C231.232 37.1295 230.085 39.0684 229.494 40.3026C229.651 40.5742 229.742 40.5245 230.118 40.6396C229.803 40.6561 229.527 40.602 229.363 40.7791L229.401 40.8761C228.867 41.0218 228.389 42.0377 228.107 42.53L223.898 49.9684C223.231 51.1244 220.988 54.8606 220.692 55.8665C220.141 57.7372 220.438 62.4157 220.415 64.498C220.375 68.0089 220.502 71.6297 220.398 75.1294C221 74.8 221.61 74.4841 222.226 74.1821L222.669 74.5395C221.899 75.0036 220.537 75.5316 220.468 76.2125C220.296 77.9236 220.747 80.2053 221.199 81.8083C221.819 81.3241 222.731 80.6575 223.301 80.1547L224.141 80.3127C220.105 82.8471 216.88 88.2925 217.951 93.1395C217.801 93.222 217.572 93.3323 217.458 93.4507C216.899 91.9495 217.157 89.5161 217.392 87.977C216.924 87.9343 216.263 87.9547 215.78 87.9622C211.211 88.0334 206.602 87.8324 202.045 88.0936C201.574 88.1207 201.107 88.4519 200.745 88.7264C200.657 88.4314 200.687 88.3681 200.766 88.0666C199.695 87.9467 197.105 87.9794 195.9 87.976L185.258 87.9703C184.155 87.9711 178.531 88.315 178.292 87.2412C179.155 86.257 181.044 86.4556 182.233 86.2642C190.785 84.8887 187.358 71.5298 188.599 70.0309C190.002 68.3356 196.036 67.9296 198.279 67.5832C198.074 73.6968 196.908 83.2789 203.752 86.1322C204.622 85.5317 208.82 82.9485 209.24 82.2576C210.585 80.0471 210.55 74.2926 210.382 71.6652C210.316 70.6466 207.975 69.1575 207.129 68.5946L207.691 68.1667C208.623 68.7189 209.715 69.5653 210.539 70.2653C210.075 68.3905 210.738 62.0975 210.351 59.987C210.134 58.8074 207.576 54.6704 206.862 53.4375L201.655 44.4443C198.774 39.4757 195.977 34.4546 192.983 29.5587C190.815 26.0125 188.299 22.9132 184.139 21.7238C183.399 21.5121 181.764 21.4883 181.589 20.6324C182.13 19.782 184.648 20.0461 185.639 20.0555L190.785 20.0729C196.173 20.0803 201.561 20.0554 206.948 20.0727C207.598 20.0748 208.666 20.0226 208.783 20.7416C208.111 21.6999 203.306 21.5436 202.947 24.1258C202.386 28.1628 206.324 33.2527 208.201 36.7182C211.518 42.8466 215.295 48.7981 218.597 54.9096C220.174 51.5562 222.654 47.7774 224.455 44.468C224.959 43.5424 226.436 41.2821 226.768 40.4228L225.392 39.7954L225.645 39.3595C226.053 39.5118 226.646 39.6996 226.976 39.9528ZM205.167 86.2076C206.048 85.7559 207.916 84.8092 208.361 83.9169L208.236 83.7685C207.626 84.1606 205.27 85.6055 205.055 86.0772L205.167 86.2076Z" fill="#797572"/>
<path d="M208.236 83.7685L208.361 83.9169C207.916 84.8092 206.048 85.7559 205.167 86.2076L205.055 86.0772C205.27 85.6055 207.626 84.1606 208.236 83.7685Z" fill="#797572"/>
<path d="M186.962 24.6326L187.188 24.8458C188.329 25.9283 189.447 27.0367 190.386 28.3029C191.686 30.0572 197.813 40.1818 198.143 41.8362C198.552 43.8779 198.279 47.1702 198.27 49.3431C198.249 54.715 198.161 60.1055 198.294 65.4756C200.578 65.6518 202.951 65.9818 205.057 66.9106C205.332 67.359 205.464 67.4945 205.831 67.8787C194.173 63.4036 180.152 70.1578 175.744 81.6836C173.837 86.6345 173.684 92.0857 175.309 97.1354C175.789 98.653 176.362 99.8428 176.938 101.294C179.447 100.099 182.041 98.9915 184.495 97.7126L184.972 98.0903C182.521 99.4001 179.891 100.618 177.367 101.784C184.802 115.653 204.361 122 219.061 117.76C232.359 114.036 245.747 100.117 241.879 85.4748C240.183 79.0514 233.083 77.1257 227.254 78.8558C227.171 78.755 227.218 78.337 227.223 78.1606C234.283 76.0189 241.9 78.2781 244.025 85.9341C248.05 100.423 234.105 114.582 221.069 118.366C211.281 121.206 199.651 120.401 190.618 115.502C184.787 112.396 179.919 107.761 176.539 102.1C176.192 102.283 175.817 102.495 175.455 102.632L175.392 102.395L175.035 102.383L174.956 102.158C175.387 101.976 175.881 101.694 176.3 101.469C176.013 101.025 175.811 100.596 175.59 100.13C171.278 91.0088 172.709 79.704 180.236 72.6618C182.897 70.1722 185.052 68.9128 188.393 67.3913C188.231 62.7821 188.341 57.5851 188.347 52.9363L188.342 26.8141C187.758 27.9464 186.905 30.2642 186.406 31.5125L182.972 40.0256L170.704 69.8197L166.083 81.1376C165.355 82.922 164.674 84.7267 163.908 86.4951C163.757 86.8442 162.971 88.342 162.497 88.0795C161.988 87.7985 161.409 86.8088 161.145 86.2693C160.354 84.6507 159.686 82.9672 158.966 81.315C157.522 78.081 156.123 74.828 154.766 71.5568C153.713 69.0281 152.645 66.5053 151.563 63.9887C150.893 62.4512 150.175 61.0102 149.563 59.4443C152.055 58.3549 155.827 55.6992 157.989 54.061C158.562 55.9377 159.686 58.2216 160.426 60.0885C162.295 64.7985 164.712 69.784 166.507 74.4753C169.911 65.4457 174.126 55.8384 177.821 46.8261L183.261 33.6222C184.402 30.8111 185.698 27.3445 186.962 24.6326Z" fill="#797572"/>
<path d="M219.921 97.1299C220.661 98.5986 221.65 100.451 221.467 102.047C220.293 112.262 205.209 110.517 200.27 104.481C195.925 99.1714 199.463 91.3764 206.427 93.8232C207.801 94.3185 208.411 94.9371 209.091 96.1547C210.759 99.1407 206.697 105.656 210.737 107.104C214.148 108.328 218.834 106.575 220.277 103.16C221.139 101.12 220.033 98.8147 219.115 97.0088C219.481 96.917 219.514 97.0008 219.921 97.1299Z" fill="#797572"/>
<path d="M190.743 10.6857C192.309 9.52676 194.692 8.42363 196.459 7.47796C207.685 1.46934 219.934 -1.26698 232.636 0.558833C242.597 1.99054 253.401 9.46719 253.314 20.4581L253.145 20.7902L252.859 20.7456C252.644 21.3861 252.742 21.8723 252.582 22.4466C252.635 19.1529 251.825 15.9023 250.232 13.0161C245.393 4.32698 233.164 1.03854 223.803 1.23369C212.211 1.47535 200.337 6.20283 190.306 11.7798C190.323 11.5823 190.658 11.1602 190.743 10.6857Z" fill="#797572"/>
<path d="M140.577 5.07261C145.549 5.46409 151.276 8.25948 154.461 12.1052C155.542 13.4106 156.198 14.4343 156.903 15.987C157.141 16.5116 157.63 17.6924 157.9 18.1041C159.373 17.4199 159.96 17.1867 161.525 16.815C161.897 16.9066 162.223 16.9598 162.6 17.0219L162.66 17.2061C160.79 17.4325 159.723 17.7839 157.959 18.4518C158.449 20.2918 158.63 22.2001 158.493 24.0991C158.367 25.9056 157.906 27.7966 156.466 29.0334C155.333 30.0059 153.462 30.3505 152.439 29.0408C151.794 28.2133 151.763 26.912 151.903 25.9118C152.282 23.2047 154.003 20.7903 156.153 19.1636C153.938 12.3666 149.573 8.37911 142.663 6.27697C141.552 5.93893 140.165 5.81504 139.001 5.57004C139.136 5.54395 139.142 5.52324 139.268 5.45484C138.851 5.38694 138.467 5.35256 138.095 5.15609L138.429 5.04488C139.142 5.25003 139.849 5.17333 140.577 5.07261ZM153.167 28.8701C157.404 29.9118 157.185 20.9131 156.182 19.6705C154.902 20.9287 153.9 22.022 153.094 23.6681C152.43 25.0253 151.846 27.7574 153.167 28.8701Z" fill="#797572"/>
<path d="M104.905 30.2994C106.718 22.8234 111.101 16.2158 117.292 11.623C123.943 6.69144 132.252 3.84421 140.577 5.07261C139.849 5.17333 139.142 5.25003 138.429 5.04488L138.095 5.15609C138.467 5.35256 138.851 5.38694 139.268 5.45484C139.142 5.52324 139.136 5.54395 139.001 5.57004C130.712 5.00807 122.535 7.72641 116.246 13.1351C111.819 16.9387 108.432 21.5188 106.579 27.058C106.191 28.217 105.719 29.375 105.547 30.5918C105.347 30.572 105.091 30.4024 104.905 30.2994Z" fill="#797572"/>
<path d="M251.257 75.029C251.255 74.8632 251.278 74.7791 251.209 74.6434L251.397 74.4729L251.313 74.3516L251.304 74.3722L251.451 74.3872C251.671 74.6587 251.862 74.9606 252.17 75.0895L252.293 75.0622C253.259 76.3559 254.353 77.9243 254.92 79.7177C256.014 83.1812 255.842 89.8646 251.916 91.6377C251.426 91.8591 250.516 91.7518 250.011 91.4716C249.122 90.3023 251.474 89.565 252.219 88.8985C256.124 85.408 254.144 78.5219 251.257 75.029Z" fill="#797572"/>
<path d="M225.392 39.7954C221.152 37.6249 217.935 34.8974 217.419 29.8664C217.271 28.0166 217.781 26.9744 218.819 25.6082C220.315 23.6413 224.57 25.6596 222.504 27.5247C221.92 27.4492 221.619 26.9428 221.096 26.6685C219.484 25.8158 218.663 28.5487 218.653 29.6714C218.615 33.9104 221.927 37.6846 225.645 39.3595L225.392 39.7954Z" fill="#797572"/>
<path d="M150.603 107.937C157.294 108.117 168.98 105.14 174.956 102.158L175.035 102.383L175.392 102.395L175.455 102.632C169.002 105.355 160.704 107.757 153.772 108.494C152.542 108.625 150.547 108.851 149.352 108.644C149.146 108.658 148.603 108.586 148.372 108.561C148.037 108.304 147.785 108.144 147.56 107.785C148.576 107.951 149.575 107.96 150.603 107.937Z" fill="#797572"/>
<path d="M147.56 107.785C148.576 107.951 149.575 107.96 150.603 107.937C151.062 108.106 151.301 108.076 151.456 108.393C151.172 108.618 149.83 108.618 149.352 108.644C149.146 108.658 148.603 108.586 148.372 108.561C148.037 108.304 147.785 108.144 147.56 107.785Z" fill="#797572"/>
<path d="M253.314 20.4581C253.562 29.1853 249.356 36.1132 241.08 39.5237C240.269 39.8582 239.563 40.2446 238.655 40.3299C238.483 40.3289 238.069 40.1787 237.884 40.1197C246.498 38.0567 252.228 31.2863 252.582 22.4466C252.742 21.8723 252.644 21.3861 252.859 20.7456L253.145 20.7902L253.314 20.4581Z" fill="#797572"/>
<path d="M143.47 94.8061C143.525 95.1125 143.539 95.2248 143.665 95.5077C142.764 95.9173 142.153 96.1841 141.361 96.7935C137.743 99.5789 137.553 104.111 141.768 106.444C141.558 106.687 141.525 106.745 141.219 106.829C136.413 104.715 136.719 98.7327 140.826 96.0978C141.748 95.5063 142.446 95.21 143.47 94.8061Z" fill="#797572"/>
<path d="M190.743 10.6857C190.658 11.1602 190.323 11.5823 190.306 11.7798C185.137 14.8259 179.566 18.43 174.936 22.2605L174.517 21.9092C177.463 19.5076 180.637 17.268 183.786 15.1423C185.975 13.6641 188.422 11.9142 190.743 10.6857Z" fill="#797572"/>
<path d="M104.905 30.2994C105.091 30.4024 105.347 30.572 105.547 30.5918C104.837 35.9494 104.561 41.9418 108.058 46.4956C108.193 46.6717 108.332 46.8452 108.475 47.0159L107.845 47.1875C104.1 42.2768 104.154 36.2129 104.905 30.2994Z" fill="#797572"/>
<path d="M143.47 94.8061C149.987 92.7791 156.821 93.5225 163.071 96.3903C163.269 96.481 163.335 96.5399 163.478 96.6978L163.395 96.849C162.966 96.8697 161.932 96.2696 161.457 96.087C155.992 93.984 149.196 93.3475 143.665 95.5077C143.539 95.2248 143.525 95.1125 143.47 94.8061Z" fill="#797572"/>
<path d="M200.766 88.0666C200.687 88.3681 200.657 88.4314 200.745 88.7264C199.453 89.761 196.609 91.5101 195.124 92.3969C191.799 94.3979 188.413 96.2966 184.972 98.0903L184.495 97.7126C186.124 97.1758 199.694 89.2514 200.766 88.0666Z" fill="#797572"/>
<path d="M228.167 71.3519C232.653 69.7468 235.498 69.235 240.229 69.5508C242.334 69.6912 242.898 69.4097 245.058 70.2576L245.033 70.7057C241.963 69.5233 236.16 69.8045 232.893 70.456C231.405 70.7529 229.384 71.438 227.911 71.9408L228.167 71.3519Z" fill="#797572"/>
<path d="M157.808 36.0343C161.721 32.3556 165.847 29.0572 169.837 25.5393L170.255 25.9993C167.517 28.179 164.833 30.4248 162.205 32.7348C161.174 33.6341 158.877 35.7689 157.892 36.485L157.808 36.0343Z" fill="#797572"/>
<path d="M133.126 63.6799C129.213 64.2762 120.963 63.2933 118.398 59.9551C119.469 60.5256 120.453 61.2208 121.587 61.7194C125.004 63.2211 128.362 63.4198 132.001 63.0398L132.024 63.1503C131.571 63.3988 130.735 63.4137 130.19 63.461C131.223 63.4783 132.108 63.4633 133.126 63.6799Z" fill="#797572"/>
<path d="M161.525 16.815C164.214 16.4783 166.231 16.7404 168.493 18.4114C169.289 18.9991 170.536 20.4772 170.904 21.3662C170.643 21.832 170.746 22.0876 170.853 22.6235C168.827 18.7757 167.271 17.172 162.66 17.2061L162.6 17.0219C162.223 16.9598 161.897 16.9066 161.525 16.815Z" fill="#797572"/>
<path d="M245.058 70.2576C247.289 70.9281 251.161 73.0076 252.293 75.0622L252.17 75.0895C251.862 74.9606 251.671 74.6587 251.451 74.3872L251.304 74.3722L251.313 74.3516L251.397 74.4729L251.209 74.6434C251.278 74.7791 251.255 74.8632 251.257 75.029C249.309 72.8141 247.781 71.7071 245.033 70.7057L245.058 70.2576Z" fill="#797572"/>
<path d="M141.768 106.444C143.308 107.049 145.9 107.716 147.56 107.785C147.785 108.144 148.037 108.304 148.372 108.561C146.031 108.361 143.352 107.781 141.219 106.829C141.525 106.745 141.558 106.687 141.768 106.444Z" fill="#797572"/>
<path d="M222.226 74.1821C224.413 72.9949 225.899 72.3314 228.167 71.3519L227.911 71.9408C227.204 72.4102 223.687 74.0158 222.669 74.5395L222.226 74.1821Z" fill="#797572"/>
<path d="M230.118 40.6396C232.33 41.7488 235.349 40.5896 237.884 40.1197C238.069 40.1787 238.483 40.3289 238.655 40.3299C236.967 41.0318 230.88 41.9097 229.401 40.8761L229.363 40.7791C229.527 40.602 229.803 40.6561 230.118 40.6396Z" fill="#797572"/>
<path d="M223.301 80.1547C224.716 79.2638 225.654 78.7347 227.223 78.1606C227.218 78.337 227.171 78.755 227.254 78.8558C226.049 79.3512 225.295 79.6702 224.141 80.3127L223.301 80.1547Z" fill="#797572"/>
<path d="M217.951 93.1395C218.519 94.9486 218.845 95.5761 219.921 97.1299C219.514 97.0008 219.481 96.917 219.115 97.0088C218.386 95.7289 217.997 94.825 217.458 93.4507C217.572 93.3323 217.801 93.222 217.951 93.1395Z" fill="#797572"/>
<path d="M155.363 38.2001L155.645 38.5083C155.131 38.9692 153.036 41.0034 152.597 41.1514L152.43 40.8273C153.145 40.0484 154.561 38.8477 155.363 38.2001Z" fill="#797572"/>
<path d="M205.057 66.9106C205.95 67.2131 206.887 67.6764 207.691 68.1667L207.129 68.5946C206.693 68.3609 206.261 68.1222 205.831 67.8787C205.464 67.4945 205.332 67.359 205.057 66.9106Z" fill="#797572"/>
<path d="M157.808 36.0343L157.892 36.485L155.645 38.5083L155.363 38.2001C156.166 37.4646 156.981 36.7426 157.808 36.0343Z" fill="#797572"/>
<path d="M76.2422 176.047C75.2891 176.047 74.5781 175.836 74.1094 175.414C73.6406 174.977 73.4062 174.445 73.4062 173.82C73.4062 173.367 73.6094 172.648 74.0156 171.664C74.4219 170.68 75.2656 169.219 76.5469 167.281C78.0469 165.047 79.7344 162.797 81.6094 160.531C83.4844 158.25 85.3984 156.039 87.3516 153.898C89.3203 151.758 91.2109 149.758 93.0234 147.898C94.8516 146.039 96.4688 144.414 97.875 143.023C97.1719 143.523 96.3906 144.133 95.5312 144.852C94.6719 145.57 93.6172 146.5 92.3672 147.641C91.1172 148.766 89.5781 150.188 87.75 151.906C85.9219 153.625 83.6953 155.742 81.0703 158.258C79.7578 159.508 77.8516 161.422 75.3516 164C72.8672 166.578 69.9453 169.828 66.5859 173.75C65.7734 174.703 65.2109 175.289 64.8984 175.508C64.6016 175.727 64.3672 175.836 64.1953 175.836C64.0859 175.836 63.9688 175.758 63.8438 175.602C63.7344 175.445 63.6797 175.195 63.6797 174.852C63.6797 173.539 64.1328 171.82 65.0391 169.695C65.9453 167.555 67.2266 165.141 68.8828 162.453C70.5547 159.75 72.5312 156.891 74.8125 153.875C77.0938 150.859 79.6016 147.805 82.3359 144.711C81.4609 145.508 79.8594 147.109 77.5312 149.516C75.2188 151.922 72.0078 155.383 67.8984 159.898C64.3359 163.805 61.1328 166.961 58.2891 169.367C55.4453 171.758 52.9297 173.508 50.7422 174.617C48.8672 175.555 47.2109 176.023 45.7734 176.023C44.3047 176.023 43.2031 175.742 42.4688 175.18C41.7344 174.617 41.3672 173.898 41.3672 173.023C41.3672 172.305 41.6094 171.773 42.0938 171.43C42.5781 171.07 43.0625 170.891 43.5469 170.891C43.7969 170.891 44.0547 170.977 44.3203 171.148C44.6016 171.32 44.7422 171.594 44.7422 171.969C44.7422 172.266 44.6094 172.539 44.3438 172.789C44.0781 173.023 43.7656 173.141 43.4062 173.141C43.2031 173.141 43 173.125 42.7969 173.094C42.6094 173.062 42.4375 172.992 42.2812 172.883C42.2812 172.945 42.2734 173 42.2578 173.047C42.2578 173.094 42.2578 173.133 42.2578 173.164C42.2578 173.836 42.5547 174.375 43.1484 174.781C43.7422 175.188 44.6094 175.391 45.75 175.391C46.9062 175.391 48.2344 175.047 49.7344 174.359C51.25 173.672 53.0312 172.531 55.0781 170.938C57.1406 169.328 59.5625 167.164 62.3438 164.445C65.125 161.727 68.3672 158.344 72.0703 154.297C75.1797 150.906 77.7266 148.266 79.7109 146.375C81.7109 144.469 83.2109 143.133 84.2109 142.367C85.2266 141.602 85.8047 141.219 85.9453 141.219C86.0547 141.219 86.1875 141.242 86.3438 141.289C86.5 141.32 86.5781 141.375 86.5781 141.453C86.5781 141.547 86.4609 141.695 86.2266 141.898C86.0703 142.039 85.875 142.211 85.6406 142.414C85.4219 142.617 85.1484 142.883 84.8203 143.211C84.4141 143.648 83.7891 144.461 82.9453 145.648C82.1172 146.82 81.1484 148.242 80.0391 149.914C78.9453 151.57 77.7734 153.367 76.5234 155.305C75.2891 157.242 74.0625 159.195 72.8438 161.164C71.625 163.133 70.4766 165 69.3984 166.766C68.3359 168.531 67.4141 170.094 66.6328 171.453C65.8672 172.797 65.3203 173.805 64.9922 174.477C66.6953 172.508 68.2344 170.742 69.6094 169.18C71 167.617 72.3281 166.156 73.5938 164.797C74.875 163.422 76.1797 162.055 77.5078 160.695C78.8516 159.336 80.3203 157.891 81.9141 156.359C83.5078 154.812 85.3203 153.078 87.3516 151.156C90.0547 148.641 92.3047 146.656 94.1016 145.203C95.9141 143.734 97.3594 142.695 98.4375 142.086C99.5156 141.461 100.297 141.148 100.781 141.148C100.938 141.148 101.016 141.211 101.016 141.336C101.016 141.445 100.812 141.641 100.406 141.922C100 142.203 99.5625 142.547 99.0938 142.953C97.5469 144.312 95.8672 146.055 94.0547 148.18C92.2578 150.289 90.4141 152.602 88.5234 155.117C86.6328 157.633 84.7656 160.188 82.9219 162.781C81.0781 165.375 79.3438 167.828 77.7188 170.141C76.9844 171.219 76.4375 172.039 76.0781 172.602C75.7344 173.148 75.5156 173.547 75.4219 173.797C75.3281 174.031 75.2812 174.242 75.2812 174.43C75.2812 175.086 75.7344 175.414 76.6406 175.414C77.0938 175.414 77.7031 175.305 78.4688 175.086C79.25 174.852 80.0625 174.523 80.9062 174.102C81.75 173.664 82.4844 173.141 83.1094 172.531C83.1875 172.562 83.2266 172.664 83.2266 172.836C83.2266 173.07 83.1875 173.25 83.1094 173.375C82.4375 173.938 81.6641 174.422 80.7891 174.828C79.9141 175.219 79.0703 175.523 78.2578 175.742C77.4453 175.945 76.7734 176.047 76.2422 176.047ZM88.6875 176.047C87.6875 176.047 86.9531 175.773 86.4844 175.227C86.0312 174.68 85.8047 173.93 85.8047 172.977C85.8047 171.93 86.0234 170.812 86.4609 169.625C86.9141 168.438 87.6562 167.258 88.6875 166.086C90.7969 163.633 92.7656 162 94.5938 161.188C96.4375 160.359 98.1641 159.945 99.7734 159.945C100.586 159.945 101.273 160.117 101.836 160.461C102.398 160.805 102.68 161.273 102.68 161.867C102.68 162.32 102.586 162.781 102.398 163.25C102.898 162.656 103.32 162.141 103.664 161.703C104.023 161.25 104.367 160.82 104.695 160.414C105.102 160.539 105.57 160.602 106.102 160.602C106.32 160.602 106.617 160.594 106.992 160.578C107.367 160.562 107.656 160.539 107.859 160.508L99.9609 170.023C98.9609 171.211 98.2422 172.18 97.8047 172.93C97.3672 173.664 97.1484 174.234 97.1484 174.641C97.1484 175.141 97.3906 175.391 97.875 175.391C98.7188 175.391 99.5938 175.148 100.5 174.664C101.406 174.164 102.297 173.531 103.172 172.766C104.047 171.984 104.867 171.18 105.633 170.352C106.398 169.508 107.07 168.734 107.648 168.031C108.242 167.312 108.695 166.781 109.008 166.438L109.477 166.836C109.133 167.227 108.648 167.789 108.023 168.523C107.398 169.258 106.68 170.055 105.867 170.914C105.07 171.773 104.203 172.594 103.266 173.375C102.344 174.156 101.391 174.797 100.406 175.297C99.4375 175.797 98.4766 176.047 97.5234 176.047C95.9609 176.047 95.1797 175.562 95.1797 174.594C95.1797 174.234 95.2422 173.875 95.3672 173.516C95.5078 173.141 95.7812 172.664 96.1875 172.086C96.5938 171.492 97.2031 170.703 98.0156 169.719L97.7812 169.625C95.875 171.969 94.1094 173.625 92.4844 174.594C90.875 175.562 89.6094 176.047 88.6875 176.047ZM88.7812 175.344C89.7812 175.344 91.1016 174.766 92.7422 173.609C94.3828 172.438 96.3516 170.492 98.6484 167.773C99.0234 167.32 99.3672 166.898 99.6797 166.508C100.008 166.117 100.32 165.75 100.617 165.406C100.977 164.859 101.297 164.289 101.578 163.695C101.875 163.102 102.023 162.562 102.023 162.078C102.023 161.594 101.852 161.242 101.508 161.023C101.164 160.789 100.789 160.672 100.383 160.672C99.6172 160.672 98.375 161.227 96.6562 162.336C94.9531 163.43 93.0781 165.188 91.0312 167.609C89.8594 169.016 89.0156 170.266 88.5 171.359C87.9844 172.453 87.7266 173.375 87.7266 174.125C87.7266 174.938 88.0781 175.344 88.7812 175.344ZM118.383 155.469C117.961 155.469 117.617 155.336 117.352 155.07C117.086 154.789 116.953 154.438 116.953 154.016C116.953 153.469 117.188 152.969 117.656 152.516C118.125 152.047 118.68 151.812 119.32 151.812C119.758 151.812 120.102 151.961 120.352 152.258C120.602 152.539 120.727 152.883 120.727 153.289C120.727 153.867 120.477 154.375 119.977 154.812C119.492 155.25 118.961 155.469 118.383 155.469ZM81.4453 194.445C80.7734 194.445 80.2578 194.273 79.8984 193.93C79.5391 193.586 79.3594 193.234 79.3594 192.875C79.3594 192.234 79.6328 191.539 80.1797 190.789C80.7109 190.055 81.625 189.234 82.9219 188.328C84.2188 187.438 85.9844 186.43 88.2188 185.305C90.4375 184.195 93.2344 182.938 96.6094 181.531C97.3438 180.641 98.1172 179.688 98.9297 178.672C99.7422 177.656 100.602 176.57 101.508 175.414C102.055 174.727 102.789 173.797 103.711 172.625C104.633 171.453 105.609 170.195 106.641 168.852C107.688 167.492 108.68 166.188 109.617 164.938C110.555 163.688 111.328 162.625 111.938 161.75C112.547 160.875 112.859 160.336 112.875 160.133C113.047 160.148 113.43 160.164 114.023 160.18C114.633 160.18 115.086 160.18 115.383 160.18C115.867 160.18 116.25 160.164 116.531 160.133C115.453 161.508 114.305 162.984 113.086 164.562C111.883 166.125 110.406 168.047 108.656 170.328C107.25 172.172 105.93 173.875 104.695 175.438C103.445 176.984 102.273 178.422 101.18 179.75C103.133 178.812 104.852 177.914 106.336 177.055C107.836 176.195 109.211 175.281 110.461 174.312C111.711 173.344 112.938 172.234 114.141 170.984C115.344 169.719 116.633 168.219 118.008 166.484L118.477 166.883C116.992 168.727 115.602 170.312 114.305 171.641C113.008 172.953 111.688 174.109 110.344 175.109C109 176.109 107.523 177.055 105.914 177.945C104.305 178.852 102.438 179.805 100.312 180.805C97.8594 183.758 95.7344 186.133 93.9375 187.93C92.1406 189.742 90.5547 191.117 89.1797 192.055C87.7891 192.992 86.4844 193.625 85.2656 193.953C84.0312 194.281 82.7578 194.445 81.4453 194.445ZM81.5156 193.812C82.3594 193.812 83.2031 193.672 84.0469 193.391C84.875 193.125 85.8125 192.602 86.8594 191.82C87.9062 191.055 89.1562 189.922 90.6094 188.422C92.0469 186.922 93.7812 184.945 95.8125 182.492C92.0625 184.086 89.0391 185.492 86.7422 186.711C84.4297 187.945 82.75 189.055 81.7031 190.039C80.6562 191.023 80.1328 191.969 80.1328 192.875C80.1328 193.047 80.2422 193.242 80.4609 193.461C80.6641 193.695 81.0156 193.812 81.5156 193.812ZM118.383 176.047C117.398 176.047 116.656 175.773 116.156 175.227C115.656 174.68 115.406 173.93 115.406 172.977C115.406 171.93 115.633 170.812 116.086 169.625C116.555 168.438 117.305 167.258 118.336 166.086C120.445 163.633 122.445 162 124.336 161.188C126.227 160.359 127.938 159.945 129.469 159.945C130.109 159.945 130.742 160.109 131.367 160.438C132.008 160.75 132.328 161.227 132.328 161.867C132.328 161.93 132.32 161.992 132.305 162.055C132.305 162.117 132.305 162.188 132.305 162.266C133.555 160.453 135.031 158.32 136.734 155.867C138.438 153.398 140.312 150.703 142.359 147.781C144.422 144.859 146.586 141.805 148.852 138.617C149.07 138.711 149.352 138.797 149.695 138.875C150.039 138.953 150.414 138.992 150.82 138.992C151.102 138.992 151.438 138.969 151.828 138.922L129.562 170.141C128.656 171.344 127.969 172.305 127.5 173.023C127.047 173.742 126.82 174.305 126.82 174.711C126.82 175.133 127.016 175.344 127.406 175.344C128.438 175.344 129.477 175.078 130.523 174.547C131.57 174 132.57 173.32 133.523 172.508C134.477 171.68 135.344 170.836 136.125 169.977C136.922 169.117 137.586 168.367 138.117 167.727C138.648 167.07 139 166.656 139.172 166.484L139.688 166.883C139.484 167.086 139.094 167.523 138.516 168.195C137.953 168.867 137.242 169.648 136.383 170.539C135.539 171.414 134.602 172.273 133.57 173.117C132.555 173.961 131.484 174.664 130.359 175.227C129.25 175.773 128.141 176.047 127.031 176.047C126.266 176.047 125.719 175.898 125.391 175.602C125.062 175.305 124.898 174.922 124.898 174.453C124.914 173.516 125.852 171.938 127.711 169.719L127.523 169.625C125.398 171.984 123.578 173.648 122.062 174.617C120.562 175.57 119.336 176.047 118.383 176.047ZM118.547 175.344C119.172 175.344 119.938 175.102 120.844 174.617C121.75 174.133 122.922 173.242 124.359 171.945C124.969 171.367 125.609 170.742 126.281 170.07C126.953 169.398 127.648 168.633 128.367 167.773C128.586 167.508 128.922 167.055 129.375 166.414C129.844 165.758 130.414 164.945 131.086 163.977C131.445 163.227 131.625 162.594 131.625 162.078C131.625 161.594 131.438 161.242 131.062 161.023C130.688 160.789 130.281 160.672 129.844 160.672C129.078 160.672 127.875 161.234 126.234 162.359C124.609 163.469 122.773 165.234 120.727 167.656C119.555 169.078 118.703 170.328 118.172 171.406C117.641 172.469 117.375 173.375 117.375 174.125C117.375 174.938 117.766 175.344 118.547 175.344ZM138.984 176.047C137.984 176.047 137.25 175.773 136.781 175.227C136.328 174.68 136.102 173.93 136.102 172.977C136.102 171.93 136.32 170.812 136.758 169.625C137.211 168.438 137.953 167.258 138.984 166.086C141.094 163.633 143.062 162 144.891 161.188C146.734 160.359 148.461 159.945 150.07 159.945C150.883 159.945 151.57 160.117 152.133 160.461C152.695 160.805 152.977 161.273 152.977 161.867C152.977 162.32 152.883 162.781 152.695 163.25C153.195 162.656 153.617 162.141 153.961 161.703C154.32 161.25 154.664 160.82 154.992 160.414C155.398 160.539 155.867 160.602 156.398 160.602C156.617 160.602 156.914 160.594 157.289 160.578C157.664 160.562 157.953 160.539 158.156 160.508L150.258 170.023C149.258 171.211 148.539 172.18 148.102 172.93C147.664 173.664 147.445 174.234 147.445 174.641C147.445 175.141 147.688 175.391 148.172 175.391C149.016 175.391 149.891 175.148 150.797 174.664C151.703 174.164 152.594 173.531 153.469 172.766C154.344 171.984 155.164 171.18 155.93 170.352C156.695 169.508 157.367 168.734 157.945 168.031C158.539 167.312 158.992 166.781 159.305 166.438L159.773 166.836C159.43 167.227 158.945 167.789 158.32 168.523C157.695 169.258 156.977 170.055 156.164 170.914C155.367 171.773 154.5 172.594 153.562 173.375C152.641 174.156 151.688 174.797 150.703 175.297C149.734 175.797 148.773 176.047 147.82 176.047C146.258 176.047 145.477 175.562 145.477 174.594C145.477 174.234 145.539 173.875 145.664 173.516C145.805 173.141 146.078 172.664 146.484 172.086C146.891 171.492 147.5 170.703 148.312 169.719L148.078 169.625C146.172 171.969 144.406 173.625 142.781 174.594C141.172 175.562 139.906 176.047 138.984 176.047ZM139.078 175.344C140.078 175.344 141.398 174.766 143.039 173.609C144.68 172.438 146.648 170.492 148.945 167.773C149.32 167.32 149.664 166.898 149.977 166.508C150.305 166.117 150.617 165.75 150.914 165.406C151.273 164.859 151.594 164.289 151.875 163.695C152.172 163.102 152.32 162.562 152.32 162.078C152.32 161.594 152.148 161.242 151.805 161.023C151.461 160.789 151.086 160.672 150.68 160.672C149.914 160.672 148.672 161.227 146.953 162.336C145.25 163.43 143.375 165.188 141.328 167.609C140.156 169.016 139.312 170.266 138.797 171.359C138.281 172.453 138.023 173.375 138.023 174.125C138.023 174.938 138.375 175.344 139.078 175.344Z" fill="#3A5042"/>
<path d="M216.398 181.391C214.633 181.391 213.133 181.023 211.898 180.289C210.68 179.57 210.07 178.578 210.07 177.312C210.07 176.625 210.297 176.086 210.75 175.695C211.219 175.289 211.695 175.086 212.18 175.086C212.414 175.086 212.664 175.172 212.93 175.344C213.211 175.516 213.352 175.797 213.352 176.188C213.352 176.484 213.219 176.75 212.953 176.984C212.688 177.219 212.375 177.336 212.016 177.336C211.859 177.336 211.695 177.328 211.523 177.312C211.367 177.297 211.219 177.258 211.078 177.195C211.031 177.352 211.008 177.516 211.008 177.688C211.008 178.547 211.531 179.273 212.578 179.867C213.641 180.477 214.961 180.781 216.539 180.781C218.727 180.781 221.297 179.648 224.25 177.383C227.219 175.133 230.234 171.781 233.297 167.328C234.469 165.594 235.68 163.836 236.93 162.055C238.195 160.258 239.375 158.641 240.469 157.203C237.922 159.844 235.742 161.875 233.93 163.297C232.133 164.703 230.641 165.672 229.453 166.203C228.266 166.734 227.336 167 226.664 167C225.789 167 225.156 166.734 224.766 166.203C224.391 165.656 224.203 165.094 224.203 164.516C224.203 163.531 224.531 162.359 225.188 161C225.859 159.641 226.758 158.211 227.883 156.711C229.023 155.195 230.281 153.734 231.656 152.328C233.312 150.703 234.531 149.461 235.312 148.602C236.109 147.727 236.625 147.078 236.859 146.656C237.094 146.219 237.211 145.859 237.211 145.578C237.211 143.875 235.68 143.023 232.617 143.023C231.164 143.023 229.672 143.289 228.141 143.82C226.609 144.352 225.133 145.062 223.711 145.953C222.305 146.844 221.039 147.82 219.914 148.883C218.789 149.93 217.898 150.992 217.242 152.07C216.586 153.148 216.258 154.133 216.258 155.023C216.258 156.352 216.969 157.016 218.391 157.016C219.375 157.016 220.414 156.68 221.508 156.008C222.617 155.336 223.703 154.484 224.766 153.453C225.844 152.406 226.828 151.336 227.719 150.242C228.609 149.148 229.344 148.164 229.922 147.289C230.5 146.398 230.836 145.781 230.93 145.438C231.039 145.219 231.117 145.109 231.164 145.109C231.289 145.109 231.375 145.242 231.422 145.508C231.516 146.383 231.281 147.375 230.719 148.484C230.156 149.578 229.383 150.68 228.398 151.789C227.414 152.898 226.328 153.93 225.141 154.883C223.953 155.82 222.758 156.578 221.555 157.156C220.367 157.719 219.297 158 218.344 158C217.422 158 216.727 157.75 216.258 157.25C215.805 156.734 215.578 156.062 215.578 155.234C215.578 154.188 215.914 153.078 216.586 151.906C217.258 150.734 218.172 149.586 219.328 148.461C220.5 147.336 221.82 146.312 223.289 145.391C224.758 144.469 226.289 143.734 227.883 143.188C229.492 142.641 231.07 142.367 232.617 142.367C234.195 142.367 235.555 142.633 236.695 143.164C237.836 143.695 238.406 144.586 238.406 145.836C238.406 146.648 238.219 147.547 237.844 148.531C237.469 149.516 236.773 150.664 235.758 151.977C234.742 153.273 233.266 154.805 231.328 156.57C229.438 158.414 227.938 160.031 226.828 161.422C225.719 162.797 225.164 163.914 225.164 164.773C225.164 165.227 225.289 165.617 225.539 165.945C225.789 166.273 226.188 166.438 226.734 166.438C227.25 166.438 227.969 166.227 228.891 165.805C229.828 165.383 231.023 164.625 232.477 163.531C233.945 162.438 235.727 160.898 237.82 158.914C239.914 156.914 242.367 154.344 245.18 151.203C246.867 149.297 248.398 147.93 249.773 147.102C251.164 146.258 252.172 145.836 252.797 145.836C253.062 145.836 253.195 145.93 253.195 146.117C253.195 146.242 253.07 146.336 252.82 146.398L252.141 146.633C250.203 147.398 248.195 149.078 246.117 151.672C244.039 154.25 241.812 157.781 239.438 162.266C237.297 166.281 234.898 169.719 232.242 172.578C229.602 175.422 226.906 177.602 224.156 179.117C221.406 180.633 218.82 181.391 216.398 181.391ZM241.547 176.047C240.547 176.047 239.812 175.773 239.344 175.227C238.891 174.68 238.664 173.93 238.664 172.977C238.664 171.93 238.883 170.812 239.32 169.625C239.773 168.438 240.516 167.258 241.547 166.086C243.656 163.633 245.625 162 247.453 161.188C249.297 160.359 251.023 159.945 252.633 159.945C253.445 159.945 254.133 160.117 254.695 160.461C255.258 160.805 255.539 161.273 255.539 161.867C255.539 162.32 255.445 162.781 255.258 163.25C255.758 162.656 256.18 162.141 256.523 161.703C256.883 161.25 257.227 160.82 257.555 160.414C257.961 160.539 258.43 160.602 258.961 160.602C259.18 160.602 259.477 160.594 259.852 160.578C260.227 160.562 260.516 160.539 260.719 160.508L252.82 170.023C251.82 171.211 251.102 172.18 250.664 172.93C250.227 173.664 250.008 174.234 250.008 174.641C250.008 175.141 250.25 175.391 250.734 175.391C251.578 175.391 252.453 175.148 253.359 174.664C254.266 174.164 255.156 173.531 256.031 172.766C256.906 171.984 257.727 171.18 258.492 170.352C259.258 169.508 259.93 168.734 260.508 168.031C261.102 167.312 261.555 166.781 261.867 166.438L262.336 166.836C261.992 167.227 261.508 167.789 260.883 168.523C260.258 169.258 259.539 170.055 258.727 170.914C257.93 171.773 257.062 172.594 256.125 173.375C255.203 174.156 254.25 174.797 253.266 175.297C252.297 175.797 251.336 176.047 250.383 176.047C248.82 176.047 248.039 175.562 248.039 174.594C248.039 174.234 248.102 173.875 248.227 173.516C248.367 173.141 248.641 172.664 249.047 172.086C249.453 171.492 250.062 170.703 250.875 169.719L250.641 169.625C248.734 171.969 246.969 173.625 245.344 174.594C243.734 175.562 242.469 176.047 241.547 176.047ZM241.641 175.344C242.641 175.344 243.961 174.766 245.602 173.609C247.242 172.438 249.211 170.492 251.508 167.773C251.883 167.32 252.227 166.898 252.539 166.508C252.867 166.117 253.18 165.75 253.477 165.406C253.836 164.859 254.156 164.289 254.438 163.695C254.734 163.102 254.883 162.562 254.883 162.078C254.883 161.594 254.711 161.242 254.367 161.023C254.023 160.789 253.648 160.672 253.242 160.672C252.477 160.672 251.234 161.227 249.516 162.336C247.812 163.43 245.938 165.188 243.891 167.609C242.719 169.016 241.875 170.266 241.359 171.359C240.844 172.453 240.586 173.375 240.586 174.125C240.586 174.938 240.938 175.344 241.641 175.344ZM260.508 176.539C260.023 176.539 259.398 176.477 258.633 176.352C257.867 176.227 257.188 175.961 256.594 175.555C255.984 175.148 255.68 174.516 255.68 173.656C255.68 172.875 255.922 172.234 256.406 171.734C256.875 171.219 257.398 170.836 257.977 170.586C258.555 170.336 258.984 170.211 259.266 170.211C259.906 170.211 260.227 170.508 260.227 171.102C260.211 171.352 260.031 171.586 259.688 171.805C259.359 172.008 258.992 172.109 258.586 172.109C258.398 172.109 258.219 172.047 258.047 171.922C257.859 171.781 257.711 171.68 257.602 171.617C257.43 171.789 257.172 172.047 256.828 172.391C256.469 172.719 256.289 173.148 256.289 173.68C256.289 174.273 256.531 174.719 257.016 175.016C257.484 175.297 258.016 175.484 258.609 175.578C259.203 175.656 259.656 175.695 259.969 175.695C260.625 175.695 261.445 175.438 262.43 174.922C263.414 174.391 264.328 173.508 265.172 172.273C266.031 171.039 266.586 169.359 266.836 167.234C266.914 166.484 266.984 165.445 267.047 164.117C267.125 162.789 267.375 161.516 267.797 160.297C267.812 160.25 267.82 160.18 267.82 160.086C267.227 160.82 266.586 161.609 265.898 162.453C265.211 163.297 264.547 164.109 263.906 164.891C263.281 165.672 262.742 166.336 262.289 166.883C261.977 167.258 261.75 167.5 261.609 167.609C261.469 167.719 261.406 167.773 261.422 167.773C261.406 167.773 261.344 167.781 261.234 167.797C261.141 167.797 261.062 167.742 261 167.633C260.969 167.555 261.039 167.406 261.211 167.188C261.398 166.969 261.594 166.734 261.797 166.484C262.156 166.078 262.711 165.43 263.461 164.539C264.211 163.648 265 162.695 265.828 161.68C266.672 160.664 267.398 159.766 268.008 158.984C268.102 158.516 268.242 158.094 268.43 157.719C268.617 157.344 268.883 157.156 269.227 157.156C269.852 157.156 270.164 157.414 270.164 157.93C270.148 158.227 269.789 158.781 269.086 159.594C268.664 160.094 268.438 160.422 268.406 160.578C268.375 160.719 268.359 160.906 268.359 161.141C268.344 161.703 268.398 162.406 268.523 163.25C268.664 164.078 268.812 164.953 268.969 165.875C269.125 166.781 269.227 167.648 269.273 168.477C269.32 169.711 269.18 170.781 268.852 171.688C269.102 171.719 269.312 171.734 269.484 171.734C269.984 171.734 270.555 171.508 271.195 171.055C271.852 170.602 272.5 170.062 273.141 169.438C273.781 168.812 274.336 168.219 274.805 167.656C275.289 167.094 275.609 166.703 275.766 166.484L276.281 166.883C276.016 167.164 275.625 167.602 275.109 168.195C274.594 168.773 274.008 169.383 273.352 170.023C272.695 170.648 272.023 171.188 271.336 171.641C270.664 172.078 270.023 172.297 269.414 172.297C269.273 172.297 269.141 172.297 269.016 172.297C268.891 172.281 268.766 172.266 268.641 172.25C267.906 173.875 266.82 175 265.383 175.625C263.945 176.234 262.32 176.539 260.508 176.539ZM274.477 176.539C273.992 176.539 273.367 176.477 272.602 176.352C271.836 176.227 271.156 175.961 270.562 175.555C269.953 175.148 269.648 174.516 269.648 173.656C269.648 172.875 269.891 172.234 270.375 171.734C270.844 171.219 271.367 170.836 271.945 170.586C272.523 170.336 272.953 170.211 273.234 170.211C273.875 170.211 274.195 170.508 274.195 171.102C274.18 171.352 274 171.586 273.656 171.805C273.328 172.008 272.961 172.109 272.555 172.109C272.367 172.109 272.188 172.047 272.016 171.922C271.828 171.781 271.68 171.68 271.57 171.617C271.398 171.789 271.141 172.047 270.797 172.391C270.438 172.719 270.258 173.148 270.258 173.68C270.258 174.273 270.5 174.719 270.984 175.016C271.453 175.297 271.984 175.484 272.578 175.578C273.172 175.656 273.625 175.695 273.938 175.695C274.594 175.695 275.414 175.438 276.398 174.922C277.383 174.391 278.297 173.508 279.141 172.273C280 171.039 280.555 169.359 280.805 167.234C280.883 166.484 280.953 165.445 281.016 164.117C281.094 162.789 281.344 161.516 281.766 160.297C281.781 160.25 281.789 160.18 281.789 160.086C281.195 160.82 280.555 161.609 279.867 162.453C279.18 163.297 278.516 164.109 277.875 164.891C277.25 165.672 276.711 166.336 276.258 166.883C275.945 167.258 275.719 167.5 275.578 167.609C275.438 167.719 275.375 167.773 275.391 167.773C275.375 167.773 275.312 167.781 275.203 167.797C275.109 167.797 275.031 167.742 274.969 167.633C274.938 167.555 275.008 167.406 275.18 167.188C275.367 166.969 275.562 166.734 275.766 166.484C276.125 166.078 276.68 165.43 277.43 164.539C278.18 163.648 278.969 162.695 279.797 161.68C280.641 160.664 281.367 159.766 281.977 158.984C282.07 158.516 282.211 158.094 282.398 157.719C282.586 157.344 282.852 157.156 283.195 157.156C283.82 157.156 284.133 157.414 284.133 157.93C284.117 158.227 283.758 158.781 283.055 159.594C282.633 160.094 282.406 160.422 282.375 160.578C282.344 160.719 282.328 160.906 282.328 161.141C282.312 161.703 282.367 162.406 282.492 163.25C282.633 164.078 282.781 164.953 282.938 165.875C283.094 166.781 283.195 167.648 283.242 168.477C283.289 169.711 283.148 170.781 282.82 171.688C283.07 171.719 283.281 171.734 283.453 171.734C283.953 171.734 284.523 171.508 285.164 171.055C285.82 170.602 286.469 170.062 287.109 169.438C287.75 168.812 288.305 168.219 288.773 167.656C289.258 167.094 289.578 166.703 289.734 166.484L290.25 166.883C289.984 167.164 289.594 167.602 289.078 168.195C288.562 168.773 287.977 169.383 287.32 170.023C286.664 170.648 285.992 171.188 285.305 171.641C284.633 172.078 283.992 172.297 283.383 172.297C283.242 172.297 283.109 172.297 282.984 172.297C282.859 172.281 282.734 172.266 282.609 172.25C281.875 173.875 280.789 175 279.352 175.625C277.914 176.234 276.289 176.539 274.477 176.539ZM291.469 176.141C289.938 176.141 288.844 175.742 288.188 174.945C287.531 174.148 287.188 173.172 287.156 172.016C287.141 171.172 287.312 170.234 287.672 169.203C288.031 168.172 288.406 167.383 288.797 166.836C289.953 165.227 291.203 163.914 292.547 162.898C293.891 161.883 295.203 161.141 296.484 160.672C297.781 160.188 298.922 159.945 299.906 159.945C300.859 159.945 301.523 160.102 301.898 160.414C302.289 160.727 302.492 161.086 302.508 161.492C302.555 162.102 302.227 162.812 301.523 163.625C300.836 164.422 299.625 165.289 297.891 166.227C296.156 167.164 293.734 168.148 290.625 169.18C290.078 170.055 289.711 170.812 289.523 171.453C289.336 172.078 289.242 172.641 289.242 173.141C289.242 173.875 289.484 174.445 289.969 174.852C290.469 175.258 291.055 175.461 291.727 175.461C293.195 175.461 294.57 175.188 295.852 174.641C297.148 174.078 298.328 173.375 299.391 172.531C300.469 171.688 301.414 170.836 302.227 169.977C303.039 169.102 303.703 168.344 304.219 167.703C304.734 167.047 305.078 166.641 305.25 166.484L305.742 166.883C305.508 167.086 305.109 167.531 304.547 168.219C304 168.906 303.297 169.695 302.438 170.586C301.594 171.477 300.617 172.344 299.508 173.188C298.398 174.031 297.164 174.734 295.805 175.297C294.461 175.859 293.016 176.141 291.469 176.141ZM291.164 168.359C294.195 167.297 296.586 166.203 298.336 165.078C300.086 163.938 300.961 162.852 300.961 161.82C300.961 160.945 300.555 160.508 299.742 160.508C298.695 160.508 297.562 161.07 296.344 162.195C295.125 163.32 293.703 164.953 292.078 167.094C291.734 167.531 291.43 167.953 291.164 168.359ZM309.023 176.047C308.148 176.047 307.438 175.828 306.891 175.391C306.344 174.938 306.07 174.352 306.07 173.633C306.07 172.383 306.984 170.875 308.812 169.109C310.641 167.344 313.117 165.414 316.242 163.32C314.648 163.055 313.273 162.789 312.117 162.523C310.977 162.258 310.062 161.969 309.375 161.656C309.062 162.281 308.609 163.047 308.016 163.953C307.422 164.859 306.664 165.836 305.742 166.883C305.117 167.617 304.648 168.133 304.336 168.43C304.023 168.727 303.805 168.906 303.68 168.969C303.57 169.016 303.508 169.055 303.492 169.086C303.445 169.102 303.414 169.055 303.398 168.945C303.398 168.836 303.406 168.75 303.422 168.688C303.422 168.625 303.539 168.477 303.773 168.242C304.008 168.008 304.5 167.422 305.25 166.484C306.031 165.5 306.727 164.562 307.336 163.672C307.945 162.781 308.414 162 308.742 161.328C308.18 160.969 307.852 160.57 307.758 160.133C307.633 159.383 307.781 158.703 308.203 158.094C308.625 157.484 309.172 157.18 309.844 157.18C310.672 157.18 311.086 157.539 311.086 158.258C311.086 158.617 311.016 158.922 310.875 159.172C310.734 159.422 310.594 159.664 310.453 159.898C310.172 160.227 310.031 160.641 310.031 161.141C310.031 161.297 310.297 161.469 310.828 161.656C311.375 161.828 312.039 162 312.82 162.172C313.617 162.328 314.398 162.469 315.164 162.594C315.93 162.703 316.531 162.773 316.969 162.805C317.266 162.82 317.445 162.875 317.508 162.969C317.586 163.047 317.625 163.109 317.625 163.156C317.625 163.312 317.398 163.57 316.945 163.93C316.086 164.586 315.203 165.383 314.297 166.32C313.391 167.242 312.547 168.203 311.766 169.203C310.984 170.188 310.352 171.117 309.867 171.992C309.383 172.867 309.141 173.586 309.141 174.148C309.141 174.883 309.438 175.25 310.031 175.25C310.797 175.25 311.633 174.992 312.539 174.477C313.445 173.961 314.359 173.312 315.281 172.531C316.219 171.75 317.094 170.945 317.906 170.117C318.734 169.273 319.445 168.523 320.039 167.867C320.633 167.195 321.047 166.734 321.281 166.484L321.75 166.883C321.406 167.211 320.914 167.734 320.273 168.453C319.648 169.156 318.914 169.945 318.07 170.82C317.227 171.68 316.305 172.508 315.305 173.305C314.32 174.102 313.297 174.758 312.234 175.273C311.172 175.789 310.102 176.047 309.023 176.047Z" fill="#3A5042"/>
<path d="M182.58 175.632C180.617 175.632 178.996 175.12 177.716 174.096C176.308 172.965 175.604 171.451 175.604 169.552C175.604 168.933 175.678 168.389 175.828 167.92C176.382 165.936 177.481 164.336 179.124 163.12C180.681 161.989 182.537 161.307 184.692 161.072C184.03 160.368 183.7 159.589 183.7 158.736C183.7 157.307 184.361 156.155 185.684 155.28C186.836 154.512 188.158 154.128 189.652 154.128C192.126 154.128 193.364 154.981 193.364 156.688C193.364 157.349 193.108 157.936 192.596 158.448C192.084 158.96 191.497 159.216 190.836 159.216C190.473 159.216 190.153 159.141 189.876 158.992C189.513 158.8 189.332 158.544 189.332 158.224C189.332 158.16 189.353 158.064 189.396 157.936C189.396 157.808 189.438 157.744 189.524 157.744C189.588 157.744 189.62 157.787 189.62 157.872C189.62 157.936 189.609 158 189.588 158.064C189.545 158.149 189.524 158.213 189.524 158.256C189.524 158.661 189.737 158.864 190.164 158.864C190.804 158.864 191.38 158.672 191.892 158.288C192.446 157.861 192.724 157.328 192.724 156.688C192.724 155.984 192.436 155.429 191.86 155.024C191.369 154.661 190.75 154.48 190.004 154.48C188.574 154.48 187.358 154.917 186.356 155.792C185.31 156.709 184.788 157.872 184.788 159.28C184.788 159.984 184.958 160.571 185.3 161.04C185.428 161.04 185.556 161.04 185.684 161.04C185.812 161.019 185.94 161.008 186.068 161.008C188.436 161.008 189.62 161.339 189.62 162C189.62 162.427 189.236 162.64 188.468 162.64C187.273 162.64 186.196 162.288 185.236 161.584C181.118 162.331 178.601 164.453 177.684 167.952C177.534 168.464 177.46 169.04 177.46 169.68C177.46 171.301 177.982 172.635 179.028 173.68C180.073 174.661 181.428 175.152 183.092 175.152C185.097 175.152 186.942 174.512 188.628 173.232C190.441 171.824 191.347 170.149 191.347 168.208C191.347 166.331 190.249 165.392 188.052 165.392C187.39 165.392 186.729 165.467 186.068 165.616C185.428 165.765 184.777 166 184.116 166.32C183.732 166.491 183.38 166.704 183.06 166.96C182.74 167.195 182.441 167.461 182.164 167.76C181.545 168.507 181.236 169.243 181.236 169.968C181.236 170.608 181.449 171.141 181.876 171.568C182.302 171.995 182.836 172.208 183.476 172.208C184.18 172.208 184.798 172.048 185.332 171.728C185.972 171.365 186.292 170.864 186.292 170.224C186.292 170.032 186.356 169.936 186.484 169.936C186.654 169.936 186.74 170.096 186.74 170.416C186.74 171.12 186.366 171.696 185.62 172.144C185.022 172.507 184.329 172.688 183.54 172.688C182.58 172.688 181.801 172.325 181.204 171.6C180.628 170.896 180.34 170.075 180.34 169.136C180.34 167.259 181.214 165.904 182.964 165.072C183.924 164.624 185.353 164.4 187.252 164.4C188.361 164.4 190.004 164.496 192.18 164.688C194.356 164.88 195.988 164.976 197.076 164.976C200.468 164.976 202.164 164.229 202.164 162.736C202.164 161.904 201.705 161.413 200.788 161.264C200.596 161.221 200.5 161.125 200.5 160.976C200.5 160.784 200.596 160.688 200.788 160.688C201.278 160.688 201.737 160.901 202.164 161.328C202.526 161.755 202.708 162.224 202.708 162.736C202.708 162.779 202.708 162.832 202.708 162.896C202.708 162.96 202.697 163.013 202.676 163.056C202.334 164.72 200.478 165.552 197.108 165.552C196.382 165.552 195.358 165.52 194.036 165.456C193.31 165.413 192.692 165.381 192.18 165.36C191.668 165.339 191.252 165.328 190.932 165.328C192.02 165.84 192.564 166.832 192.564 168.304C192.564 170.501 191.412 172.325 189.108 173.776C187.081 175.013 184.905 175.632 182.58 175.632ZM187.988 162.32C188.649 162.32 188.98 162.181 188.98 161.904C188.98 161.541 188.5 161.36 187.54 161.36C187.241 161.36 186.932 161.371 186.612 161.392C186.313 161.413 186.014 161.445 185.716 161.488C186.377 162.043 187.134 162.32 187.988 162.32Z" fill="#3A5042"/>
<g filter="url(#filter0_i_136_192)">
<path d="M138.992 243.04L138.944 242.68C138.88 242.184 138.776 241.816 138.632 241.576C138.504 241.352 138.272 241.2 137.936 241.12C137.6 241.04 137.088 241 136.4 241H132.776V240.544L134.36 239.008C135.336 238.064 136.08 237.288 136.592 236.68C137.12 236.072 137.48 235.528 137.672 235.048C137.864 234.568 137.96 234.056 137.96 233.512C137.96 232.696 137.728 232.048 137.264 231.568C136.8 231.072 136.184 230.824 135.416 230.824C134.616 230.824 133.96 231.056 133.448 231.52C132.952 231.968 132.704 232.552 132.704 233.272C132.704 233.72 132.84 234.152 133.112 234.568C133.4 234.984 133.744 235.264 134.144 235.408L133.904 235.936C133.312 235.696 132.84 235.328 132.488 234.832C132.136 234.336 131.96 233.792 131.96 233.2C131.96 232.608 132.128 232.08 132.464 231.616C132.8 231.152 133.256 230.784 133.832 230.512C134.408 230.24 135.064 230.104 135.8 230.104C137.032 230.104 138.016 230.392 138.752 230.968C139.504 231.528 139.88 232.28 139.88 233.224C139.88 233.96 139.568 234.744 138.944 235.576C138.32 236.408 137.288 237.408 135.848 238.576L134.096 239.992L133.88 239.536L139.712 239.152L139.592 240.16L139.568 243.04H138.992ZM150.366 241.22C149.593 241.22 148.966 241.06 148.486 240.74C148.006 240.42 147.766 240 147.766 239.48C147.766 239.16 147.859 238.9 148.046 238.7C148.246 238.5 148.493 238.4 148.786 238.4C149.053 238.4 149.273 238.48 149.446 238.64C149.619 238.8 149.706 239 149.706 239.24C149.706 239.307 149.699 239.38 149.686 239.46C149.673 239.54 149.639 239.64 149.586 239.76C149.519 239.907 149.486 240.04 149.486 240.16C149.486 240.547 149.719 240.74 150.186 240.74C150.639 240.74 150.999 240.54 151.266 240.14C151.533 239.74 151.666 239.207 151.666 238.54V229.46C151.666 228.86 151.626 228.413 151.546 228.12C151.479 227.827 151.326 227.627 151.086 227.52C150.846 227.413 150.466 227.333 149.946 227.28L149.546 227.24V226.74L152.506 226.8H152.526L155.486 226.74V227.24L155.086 227.28C154.579 227.333 154.199 227.42 153.946 227.54C153.706 227.647 153.546 227.847 153.466 228.14C153.399 228.42 153.366 228.86 153.366 229.46V238.18C153.366 239.167 153.113 239.92 152.606 240.44C152.099 240.96 151.353 241.22 150.366 241.22ZM161.199 241.22C160.319 241.22 159.639 240.993 159.159 240.54C158.679 240.087 158.439 239.453 158.439 238.64V234.36C158.439 233.773 158.319 233.36 158.079 233.12C157.853 232.867 157.453 232.74 156.879 232.74H156.679V232.28C157.226 232.293 157.759 232.28 158.279 232.24C158.799 232.2 159.319 232.133 159.839 232.04V238.56C159.839 239.2 159.999 239.7 160.319 240.06C160.653 240.407 161.113 240.58 161.699 240.58C162.313 240.58 162.879 240.38 163.399 239.98C163.933 239.58 164.346 239.033 164.639 238.34L165.119 238.44C164.986 238.76 164.846 239.04 164.699 239.28C164.553 239.507 164.393 239.713 164.219 239.9C163.446 240.78 162.439 241.22 161.199 241.22ZM164.639 241.18V234.36C164.639 233.773 164.519 233.36 164.279 233.12C164.053 232.867 163.653 232.74 163.079 232.74H162.879V232.28C163.426 232.293 163.959 232.28 164.479 232.24C164.999 232.2 165.519 232.133 166.039 232.04V238.78C166.039 239.447 166.159 239.907 166.399 240.16C166.639 240.413 167.073 240.54 167.699 240.54V241C167.193 241 166.766 241 166.419 241C166.086 241.013 165.779 241.033 165.499 241.06C165.233 241.087 164.946 241.127 164.639 241.18ZM168.605 241.06V240.6L168.925 240.56C169.365 240.507 169.685 240.433 169.885 240.34C170.085 240.233 170.212 240.047 170.265 239.78C170.332 239.513 170.365 239.113 170.365 238.58V228.88C170.365 228.28 170.245 227.86 170.005 227.62C169.765 227.38 169.345 227.26 168.745 227.26H168.605V226.8C169.272 226.8 169.845 226.787 170.325 226.76C170.818 226.72 171.298 226.653 171.765 226.56V238.58C171.765 239.113 171.792 239.513 171.845 239.78C171.912 240.047 172.045 240.233 172.245 240.34C172.458 240.433 172.778 240.507 173.205 240.56L173.525 240.6V241.06L171.065 241L168.605 241.06ZM175.072 246.88C174.646 246.88 174.299 246.78 174.032 246.58C173.766 246.393 173.632 246.147 173.632 245.84C173.632 245.573 173.732 245.347 173.932 245.16C174.132 244.973 174.379 244.88 174.672 244.88C174.806 244.88 174.919 244.9 175.012 244.94C175.106 244.98 175.232 245.053 175.392 245.16C175.552 245.28 175.686 245.36 175.792 245.4C175.912 245.453 176.026 245.48 176.132 245.48C176.439 245.48 176.719 245.36 176.972 245.12C177.226 244.893 177.466 244.533 177.692 244.04L182.252 234.22C182.479 233.74 182.532 233.393 182.412 233.18C182.306 232.967 181.999 232.833 181.492 232.78L181.172 232.74V232.28L183.092 232.34L184.692 232.28V232.74L184.392 232.78C184.006 232.833 183.692 232.973 183.452 233.2C183.226 233.413 182.979 233.813 182.712 234.4L178.192 244.26C177.792 245.127 177.332 245.78 176.812 246.22C176.292 246.66 175.712 246.88 175.072 246.88ZM179.152 241.52L175.692 233.92C175.519 233.533 175.346 233.26 175.172 233.1C174.999 232.94 174.779 232.84 174.512 232.8L174.052 232.74V232.28L176.132 232.34L178.152 232.28V232.74L177.872 232.78C177.432 232.833 177.166 232.96 177.072 233.16C176.992 233.36 177.052 233.68 177.252 234.12L179.912 239.96L179.152 241.52ZM197.435 242.7L197.395 242.4C197.341 241.987 197.255 241.68 197.135 241.48C197.028 241.293 196.835 241.167 196.555 241.1C196.275 241.033 195.848 241 195.275 241H192.255V240.62L193.575 239.34C194.388 238.553 195.008 237.907 195.435 237.4C195.875 236.893 196.175 236.44 196.335 236.04C196.495 235.64 196.575 235.213 196.575 234.76C196.575 234.08 196.381 233.54 195.995 233.14C195.608 232.727 195.095 232.52 194.455 232.52C193.788 232.52 193.241 232.713 192.815 233.1C192.401 233.473 192.195 233.96 192.195 234.56C192.195 234.933 192.308 235.293 192.535 235.64C192.775 235.987 193.061 236.22 193.395 236.34L193.195 236.78C192.701 236.58 192.308 236.273 192.015 235.86C191.721 235.447 191.575 234.993 191.575 234.5C191.575 234.007 191.715 233.567 191.995 233.18C192.275 232.793 192.655 232.487 193.135 232.26C193.615 232.033 194.161 231.92 194.775 231.92C195.801 231.92 196.621 232.16 197.235 232.64C197.861 233.107 198.175 233.733 198.175 234.52C198.175 235.133 197.915 235.787 197.395 236.48C196.875 237.173 196.015 238.007 194.815 238.98L193.355 240.16L193.175 239.78L198.035 239.46L197.935 240.3L197.915 242.7H197.435ZM204.668 241.22C203.882 241.22 203.175 241.02 202.548 240.62C201.935 240.207 201.448 239.653 201.088 238.96C200.742 238.253 200.568 237.453 200.568 236.56C200.568 235.667 200.748 234.873 201.108 234.18C201.468 233.487 201.955 232.94 202.568 232.54C203.195 232.127 203.895 231.92 204.668 231.92C205.455 231.92 206.155 232.127 206.768 232.54C207.382 232.94 207.868 233.487 208.228 234.18C208.588 234.873 208.768 235.667 208.768 236.56C208.768 237.453 208.588 238.253 208.228 238.96C207.882 239.653 207.395 240.207 206.768 240.62C206.155 241.02 205.455 241.22 204.668 241.22ZM204.668 240.72C205.535 240.72 206.168 240.38 206.568 239.7C206.968 239.02 207.168 237.973 207.168 236.56C207.168 235.133 206.968 234.087 206.568 233.42C206.168 232.753 205.535 232.42 204.668 232.42C203.815 232.42 203.182 232.753 202.768 233.42C202.368 234.087 202.168 235.133 202.168 236.56C202.168 237.973 202.368 239.02 202.768 239.7C203.182 240.38 203.815 240.72 204.668 240.72ZM216.633 242.7L216.593 242.4C216.54 241.987 216.453 241.68 216.333 241.48C216.226 241.293 216.033 241.167 215.753 241.1C215.473 241.033 215.046 241 214.473 241H211.453V240.62L212.773 239.34C213.586 238.553 214.206 237.907 214.633 237.4C215.073 236.893 215.373 236.44 215.533 236.04C215.693 235.64 215.773 235.213 215.773 234.76C215.773 234.08 215.58 233.54 215.193 233.14C214.806 232.727 214.293 232.52 213.653 232.52C212.986 232.52 212.44 232.713 212.013 233.1C211.6 233.473 211.393 233.96 211.393 234.56C211.393 234.933 211.506 235.293 211.733 235.64C211.973 235.987 212.26 236.22 212.593 236.34L212.393 236.78C211.9 236.58 211.506 236.273 211.213 235.86C210.92 235.447 210.773 234.993 210.773 234.5C210.773 234.007 210.913 233.567 211.193 233.18C211.473 232.793 211.853 232.487 212.333 232.26C212.813 232.033 213.36 231.92 213.973 231.92C215 231.92 215.82 232.16 216.433 232.64C217.06 233.107 217.373 233.733 217.373 234.52C217.373 235.133 217.113 235.787 216.593 236.48C216.073 237.173 215.213 238.007 214.013 238.98L212.553 240.16L212.373 239.78L217.233 239.46L217.133 240.3L217.113 242.7H216.633ZM224.007 241.22C222.673 241.22 221.667 240.687 220.987 239.62C220.307 238.553 219.967 236.973 219.967 234.88C219.967 233.533 220.16 232.313 220.547 231.22C220.947 230.127 221.527 229.26 222.287 228.62C223.047 227.98 223.973 227.66 225.067 227.66C225.773 227.66 226.347 227.793 226.787 228.06C227.227 228.313 227.447 228.653 227.447 229.08C227.447 229.347 227.36 229.567 227.187 229.74C227.027 229.913 226.813 230 226.547 230C226.347 230 226.173 229.947 226.027 229.84C225.88 229.733 225.773 229.593 225.707 229.42L225.607 229.14C225.393 228.513 225.02 228.2 224.487 228.2C223.993 228.2 223.547 228.407 223.147 228.82C222.76 229.233 222.44 229.787 222.187 230.48C221.933 231.16 221.747 231.92 221.627 232.76C221.52 233.6 221.493 234.447 221.547 235.3L221.327 235C221.633 234.293 222.06 233.753 222.607 233.38C223.167 233.007 223.813 232.82 224.547 232.82C225.24 232.82 225.853 232.993 226.387 233.34C226.92 233.687 227.333 234.167 227.627 234.78C227.933 235.38 228.087 236.08 228.087 236.88C228.087 237.733 227.913 238.487 227.567 239.14C227.22 239.793 226.74 240.307 226.127 240.68C225.527 241.04 224.82 241.22 224.007 241.22ZM223.987 240.72C224.493 240.72 224.933 240.56 225.307 240.24C225.68 239.907 225.967 239.44 226.167 238.84C226.38 238.24 226.487 237.54 226.487 236.74C226.487 235.66 226.293 234.827 225.907 234.24C225.533 233.64 225 233.34 224.307 233.34C223.533 233.34 222.907 233.7 222.427 234.42C221.947 235.127 221.707 236.06 221.707 237.22C221.707 237.94 221.8 238.567 221.987 239.1C222.173 239.62 222.433 240.02 222.767 240.3C223.113 240.58 223.52 240.72 223.987 240.72Z" fill="#A1A79F"/>
</g>
<defs>
<filter id="filter0_i_136_192" x="131.96" y="226.56" width="96.127" height="22.3198" filterUnits="userSpaceOnUse" color-interpolation-filters="sRGB">
<feFlood flood-opacity="0" result="BackgroundImageFix"/>
<feBlend mode="normal" in="SourceGraphic" in2="BackgroundImageFix" result="shape"/>
<feColorMatrix in="SourceAlpha" type="matrix" values="0 0 0 0 0 0 0 0 0 0 0 0 0 0 0 0 0 0 127 0" result="hardAlpha"/>
<feOffset dy="4"/>
<feGaussianBlur stdDeviation="1"/>
<feComposite in2="hardAlpha" operator="arithmetic" k2="-1" k3="1"/>
<feColorMatrix type="matrix" values="0 0 0 0 0 0 0 0 0 0 0 0 0 0 0 0 0 0 0.25 0"/>
<feBlend mode="normal" in2="shape" result="effect1_innerShadow_136_192"/>
</filter>
</defs>
</svg>
