<svg width="52" height="39" viewBox="0 0 52 39" fill="none" xmlns="http://www.w3.org/2000/svg">
<path fill-rule="evenodd" clip-rule="evenodd" d="M48.1739 29.6571C48.7062 29.5859 49.2218 29.7325 49.5803 30.1565C49.9023 30.5369 49.8415 31.3456 49.8388 31.8291C49.8353 32.6075 49.8649 33.4326 49.7886 34.2033C49.4019 34.2706 49.35 34.2696 48.9435 34.269C48.3971 34.2619 47.8514 34.245 47.306 34.2184C47.2019 33.7348 47.1662 30.9132 47.3488 30.3691C47.4595 30.0396 47.8652 29.802 48.1739 29.6571ZM48.4391 30.3967C48.3456 30.4713 48.1767 30.6056 48.1537 30.7242C47.9989 31.5336 48.0726 32.5964 48.0814 33.4124L48.6008 33.4297C48.7565 33.4333 48.8421 33.4645 48.9537 33.3914C48.9814 33.2194 48.9819 32.7997 48.9568 32.627C48.862 31.98 49.3139 30.5367 48.4391 30.3967Z" fill="#797572"/>
<path fill-rule="evenodd" clip-rule="evenodd" d="M43.382 29.6575C44.1558 29.5167 44.9215 29.894 44.9886 30.7274C45.053 31.5325 44.97 32.4156 45.0286 33.2332C45.0493 33.5247 45.0374 33.9354 44.9916 34.218L44.0076 34.2467C43.5044 34.2633 43.0005 34.2522 42.4983 34.2137C42.4022 33.7586 42.4019 30.9945 42.4511 30.507C42.7095 30.0997 42.9885 29.898 43.382 29.6575ZM43.534 30.4442C43.2195 30.7851 43.2655 31.2763 43.2681 31.7221C43.2713 32.2663 43.2734 32.8195 43.2888 33.3631C43.2895 33.3849 43.2903 33.4067 43.2912 33.4284L44.1245 33.4179L44.2242 33.3852C44.334 33.1656 44.3018 31.0392 44.2537 30.7027C43.9733 30.5152 43.8762 30.4375 43.534 30.4442Z" fill="#797572"/>
<path fill-rule="evenodd" clip-rule="evenodd" d="M13.6971 29.6537C15.3289 29.4588 15.3666 30.7122 15.3392 31.9385C15.3219 32.715 15.3602 33.4313 15.2984 34.2176C14.9973 34.2316 14.6807 34.235 14.378 34.2433C13.856 34.2525 13.3337 34.2434 12.8122 34.2159C12.7033 33.4927 12.7183 31.4143 12.8071 30.6191C12.8548 30.1915 13.3483 29.8706 13.6971 29.6537ZM13.829 30.4527C13.6118 30.6577 13.5967 30.8654 13.5922 31.1687C13.5811 31.9118 13.5879 32.665 13.59 33.4084L14.3999 33.4164L14.5072 33.3997C14.6438 33.1712 14.5537 30.9203 14.4794 30.5406C14.2303 30.4868 14.0879 30.4482 13.829 30.4527Z" fill="#797572"/>
<path fill-rule="evenodd" clip-rule="evenodd" d="M7.81191 29.6531C9.76123 29.5049 9.50508 31.1437 9.48739 32.5245C9.48202 32.9481 9.56507 33.7376 9.43903 34.1133C9.26036 34.274 8.87165 34.2355 8.61593 34.2391C8.2811 34.2539 7.1878 34.3508 6.97861 34.1648C6.83526 33.7988 6.81647 30.8829 6.9838 30.381C7.09057 30.0609 7.48966 29.7907 7.81191 29.6531ZM8.15323 30.4642C7.99835 30.4963 7.85238 30.5075 7.74094 30.6174C7.57128 30.9661 7.63841 32.9017 7.63921 33.4416L8.11543 33.4584C8.24879 33.4602 8.4668 33.4826 8.56886 33.4152C8.59862 33.2848 8.62001 32.8785 8.59554 32.7534C8.48264 32.176 8.96178 30.5263 8.15323 30.4642Z" fill="#797572"/>
<path fill-rule="evenodd" clip-rule="evenodd" d="M3.11305 29.6561C4.36537 29.5065 4.75303 30.2551 4.71479 31.4036C4.68353 32.3432 4.76703 33.272 4.66198 34.2171C4.35697 34.2511 4.04633 34.2509 3.73937 34.2565C3.21587 34.2565 2.71478 34.2603 2.19174 34.2257C2.0873 33.6145 2.05031 30.9699 2.26808 30.3229C2.38067 29.9886 2.80684 29.7895 3.11305 29.6561ZM3.26314 30.4504C3.05674 30.6342 3.01552 30.7218 3.00039 31.0025C2.95746 31.7987 2.98824 32.6236 3.0002 33.4203L3.68322 33.4165L3.84036 33.3909C3.95364 33.2095 3.93361 31.1827 3.86389 30.877C3.78541 30.5331 3.58941 30.4619 3.26314 30.4504Z" fill="#797572"/>
<path fill-rule="evenodd" clip-rule="evenodd" d="M37.546 29.6546C38.1246 29.5816 39.0903 29.9734 39.1374 30.5842C39.2255 31.7307 39.2062 33.0417 39.1598 34.1982C38.8887 34.2326 38.4762 34.2345 38.1929 34.2437C37.6451 34.2483 37.1741 34.2457 36.6275 34.2163C36.5614 33.4111 36.5584 31.2947 36.6719 30.4254C36.7128 30.1134 37.2383 29.7932 37.546 29.6546ZM37.3844 30.6478C37.2813 31.4779 37.3222 32.5594 37.3325 33.4199L37.9062 33.4228L38.3304 33.419C38.3359 32.6115 38.3887 31.6237 38.2727 30.818C38.2407 30.5956 38.0964 30.4643 37.8784 30.408L37.3844 30.6478Z" fill="#797572"/>
<path fill-rule="evenodd" clip-rule="evenodd" d="M30.0504 29.5878C30.3742 29.6067 30.6775 29.7557 30.8937 30.0018C31.3816 30.5684 31.2738 31.4419 31.2776 32.1519C31.2813 32.8333 31.2863 33.5496 31.2434 34.2282C31.0274 34.2699 30.6659 34.2875 30.4334 34.305C29.8397 34.3159 29.2988 34.3336 28.7097 34.2416C28.6517 33.493 28.5945 30.8782 28.8446 30.2965C29.0047 29.9246 29.2203 29.7559 29.5842 29.6092C29.7298 29.5957 29.9057 29.5791 30.0504 29.5878ZM29.9448 30.4118C29.8298 30.4683 29.5679 30.5882 29.4702 30.6514C29.3539 31.2807 29.3991 32.7195 29.4211 33.4279L29.967 33.4437L30.3965 33.4433C30.4054 32.8539 30.5425 30.9724 30.2031 30.5293C30.1586 30.4713 30.022 30.4295 29.9448 30.4118Z" fill="#797572"/>
<path fill-rule="evenodd" clip-rule="evenodd" d="M21.821 29.3922C21.9033 29.3953 21.9855 29.4011 22.0675 29.4092C23.1806 29.5245 23.1306 30.876 23.1153 31.7089C23.1008 32.4992 23.169 33.2684 23.0722 34.0609C22.6797 34.148 22.2612 34.1366 21.8594 34.139C21.3656 34.144 21.0409 34.1234 20.5541 34.0559C20.5237 33.7773 20.4955 33.219 20.5219 32.9441C20.643 31.683 19.9798 29.5687 21.821 29.3922ZM22.1959 30.4097C22.1624 30.2896 21.639 30.311 21.5129 30.3261C21.2641 30.7568 21.3526 32.6462 21.3694 33.2324L22.2446 33.2579L22.3109 33.2101C22.3691 32.5436 22.3808 31.0745 22.1959 30.4097Z" fill="#797572"/>
<path fill-rule="evenodd" clip-rule="evenodd" d="M21.8212 22.6129C21.9035 22.616 21.9857 22.6216 22.0676 22.6297C23.1808 22.745 23.1308 24.0965 23.1155 24.9294C23.101 25.7197 23.1691 26.4889 23.0723 27.2813C22.6799 27.3685 22.2614 27.3571 21.8595 27.3595C21.3657 27.3645 21.041 27.3439 20.5541 27.2764C20.5237 26.9978 20.4955 26.4395 20.5219 26.1646C20.643 24.9035 19.98 22.7893 21.8212 22.6129ZM22.1961 23.6302C22.1626 23.5101 21.6393 23.5315 21.513 23.5466C21.2643 23.9772 21.3526 25.8667 21.3694 26.4529L22.2446 26.4784L22.3111 26.4306C22.3693 25.7641 22.381 24.295 22.1961 23.6302Z" fill="#797572"/>
<path fill-rule="evenodd" clip-rule="evenodd" d="M26.0657 22.6293C26.3895 22.6481 26.6928 22.7971 26.909 23.0432C27.3969 23.6099 27.2891 24.4834 27.2929 25.1933C27.2966 25.8747 27.3016 26.591 27.2587 27.2696C27.0427 27.3113 26.6812 27.3289 26.4487 27.3464C25.855 27.3573 25.3141 27.375 24.725 27.283C24.667 26.5344 24.6098 23.9196 24.8599 23.3379C25.02 22.9661 25.2356 22.7974 25.5995 22.6506C25.7451 22.6371 25.921 22.6205 26.0657 22.6293ZM25.9601 23.4532C25.8451 23.5098 25.5832 23.6297 25.4855 23.6928C25.3692 24.3222 25.4144 25.7609 25.4364 26.4693L25.9823 26.4852L26.4118 26.4848C26.4207 25.8954 26.5578 24.0138 26.2184 23.5708C26.1739 23.5127 26.0373 23.471 25.9601 23.4532Z" fill="#797572"/>
<path fill-rule="evenodd" clip-rule="evenodd" d="M30.0504 22.6293C30.3742 22.6481 30.6775 22.7971 30.8937 23.0432C31.3816 23.6099 31.2738 24.4834 31.2776 25.1933C31.2813 25.8747 31.2863 26.591 31.2434 27.2696C31.0274 27.3113 30.6659 27.3289 30.4334 27.3464C29.8397 27.3573 29.2988 27.375 28.7097 27.283C28.6517 26.5344 28.5945 23.9196 28.8446 23.3379C29.0047 22.9661 29.2203 22.7974 29.5842 22.6506C29.7298 22.6371 29.9057 22.6205 30.0504 22.6293ZM29.9448 23.4532C29.8298 23.5098 29.5679 23.6297 29.4702 23.6928C29.3539 24.3222 29.3991 25.7609 29.4211 26.4693L29.967 26.4852L30.3965 26.4848C30.4054 25.8954 30.5425 24.0138 30.2031 23.5708C30.1586 23.5127 30.022 23.471 29.9448 23.4532Z" fill="#797572"/>
<path fill-rule="evenodd" clip-rule="evenodd" d="M14.0558 22.6129C14.1381 22.616 14.2203 22.6218 14.3022 22.6299C15.4153 22.7452 15.3654 24.0967 15.3501 24.9296C15.3356 25.7198 15.4039 26.4891 15.3071 27.2815C14.9147 27.3687 14.4962 27.3573 14.0943 27.3596C13.6005 27.3647 13.2757 27.3441 12.7889 27.2766C12.7585 26.998 12.7303 26.4397 12.7567 26.1648C12.8777 24.9037 12.2146 22.7893 14.0558 22.6129ZM14.4308 23.6304C14.3974 23.5103 13.8739 23.5317 13.7476 23.5468C13.4989 23.9774 13.5874 25.8669 13.6042 26.4531L14.4794 26.4786L14.5457 26.4308C14.6039 25.7643 14.6157 24.2952 14.4308 23.6304Z" fill="#797572"/>
<path fill-rule="evenodd" clip-rule="evenodd" d="M48.1787 22.6504C49.2768 22.5482 49.8356 23.0396 49.8325 24.1881C49.8295 25.2183 49.8591 26.257 49.796 27.2861C49.4741 27.3448 49.3452 27.3527 49.0176 27.3561C48.4337 27.3632 47.8414 27.3946 47.2708 27.2717C47.1799 26.5961 47.1509 23.8932 47.3969 23.3447C47.5716 22.9553 47.7929 22.7942 48.1787 22.6504ZM48.3835 23.4868C48.1242 23.7221 48.0871 23.9073 48.0783 24.2737C48.0611 24.9939 48.0778 25.7386 48.0857 26.4597L48.7548 26.4835C48.7907 26.4791 48.9148 26.4791 48.9197 26.4378C48.9978 25.7576 48.9589 25.0228 48.9572 24.3294C48.9559 23.794 48.9562 23.5417 48.3835 23.4868Z" fill="#797572"/>
<path fill-rule="evenodd" clip-rule="evenodd" d="M43.3744 22.6517C43.5545 22.6265 43.7367 22.6196 43.9179 22.6312C44.9803 22.7088 45.0337 23.7567 45.0019 24.5967C44.9689 25.4771 45.084 26.406 44.9901 27.2842C44.7105 27.3279 44.4873 27.3373 44.2055 27.351C43.6005 27.3608 43.09 27.3838 42.4898 27.2715C42.3898 26.7204 42.3849 24.1732 42.513 23.5483C42.5879 23.1829 43.0304 22.8313 43.3744 22.6517ZM43.9861 23.5764C43.644 23.4557 43.3811 23.5157 43.3264 23.8968C43.2202 24.6389 43.2677 25.7366 43.317 26.4702C43.5693 26.4735 43.9645 26.4929 44.1987 26.4414C44.2339 26.3935 44.2464 26.3885 44.2526 26.331C44.3134 25.7436 44.3181 24.5022 44.2489 23.9058C44.229 23.7345 44.1202 23.6627 43.9861 23.5764Z" fill="#797572"/>
<path fill-rule="evenodd" clip-rule="evenodd" d="M8.08004 22.6116C9.6338 22.5936 9.52841 24.1838 9.49925 25.3054C9.48228 25.9583 9.52721 26.6425 9.43866 27.2895C9.02685 27.3623 8.72732 27.3591 8.30925 27.361C7.87814 27.3663 7.36846 27.3837 6.95155 27.3023C6.93692 27.2246 6.92568 27.1462 6.91783 27.0674C6.90504 26.9431 6.87761 26.6181 6.89281 26.5091C7.06813 25.2547 6.26466 22.8069 8.08004 22.6116ZM8.07133 23.5013C7.92301 23.5403 7.80525 23.5518 7.7187 23.6775C7.57337 24.076 7.63684 25.939 7.64866 26.4669L8.26923 26.4823C8.44167 26.4726 8.48588 26.5028 8.59239 26.4072C8.63922 25.9115 8.63887 24.0966 8.52383 23.6566C8.37204 23.4772 8.29491 23.4931 8.07133 23.5013Z" fill="#797572"/>
<path fill-rule="evenodd" clip-rule="evenodd" d="M3.40694 22.6136C3.45904 22.6156 3.51117 22.6187 3.56315 22.6229C4.87195 22.728 4.70386 24.0414 4.70015 25.0224C4.69733 25.7719 4.73484 26.5511 4.66587 27.2968C4.21735 27.3712 3.8721 27.3581 3.42176 27.3595C3.00066 27.3614 2.60326 27.3733 2.18655 27.3034C2.1771 27.2462 2.16942 27.1887 2.16339 27.131C2.05381 26.1061 2.12318 24.761 2.16931 23.7226C2.20282 22.9685 2.75637 22.6809 3.40694 22.6136ZM3.3104 23.4896C3.19341 23.5468 3.07492 23.6066 3.05042 23.7453C2.90428 24.5732 2.98005 25.6213 3.00465 26.4578L3.63912 26.4663C3.80879 26.4493 3.7771 26.4798 3.87112 26.3767C3.90049 26.0134 3.901 23.938 3.78792 23.683C3.65284 23.5231 3.51164 23.512 3.3104 23.4896Z" fill="#797572"/>
<path fill-rule="evenodd" clip-rule="evenodd" d="M37.9676 22.6293C38.2913 22.6481 38.5946 22.7971 38.8109 23.0432C39.2987 23.6099 39.191 24.4834 39.1948 25.1933C39.1985 25.8747 39.2035 26.591 39.1605 27.2696C38.9446 27.3113 38.5831 27.3289 38.3506 27.3464C37.7569 27.3573 37.2159 27.375 36.6269 27.283C36.5689 26.5344 36.5116 23.9196 36.7618 23.3379C36.9218 22.9661 37.1375 22.7974 37.5013 22.6506C37.6469 22.6371 37.8228 22.6205 37.9676 22.6293ZM37.8619 23.4532C37.7469 23.5098 37.4851 23.6297 37.3874 23.6928C37.271 24.3222 37.3162 25.7609 37.3383 26.4693L37.8842 26.4852L38.3137 26.4848C38.3225 25.8954 38.4596 24.0138 38.1202 23.5708C38.0758 23.5127 37.9392 23.471 37.8619 23.4532Z" fill="#797572"/>
<path fill-rule="evenodd" clip-rule="evenodd" d="M36.8155 17.3527C36.952 17.3465 37.1218 17.3678 37.2543 17.4001C37.5454 17.4733 37.7956 17.6618 37.9499 17.9235C38.2699 18.4558 38.2189 19.8646 38.0752 20.4524C37.8362 20.4854 37.4115 20.482 37.1559 20.4866L35.8581 20.4854C35.7125 19.9156 35.6142 18.5113 35.935 17.9867C36.1827 17.5817 36.3989 17.4751 36.8155 17.3527ZM36.8576 18.1806C36.626 18.3788 36.605 18.6348 36.5947 18.927C36.5716 19.5812 36.5367 19.6252 37.1094 19.6355C37.1639 19.6113 37.2373 19.5984 37.2497 19.5375C37.3212 19.1842 37.3924 18.3584 36.9743 18.2161C36.9357 18.2033 36.8968 18.1914 36.8576 18.1806Z" fill="#797572"/>
<path fill-rule="evenodd" clip-rule="evenodd" d="M14.8011 17.3527C15.7543 17.2785 16.2072 18.0452 16.1745 18.9232C16.1552 19.4427 16.1835 19.9187 16.0915 20.4411C15.7827 20.4821 15.4432 20.4785 15.1296 20.4828C14.7018 20.487 14.274 20.4821 13.8464 20.4681C13.7617 20.0034 13.7617 19.5769 13.7528 19.1108C13.7355 18.202 13.8847 17.6438 14.8011 17.3527ZM14.9226 18.1806C14.5713 18.436 14.6314 18.7743 14.6078 19.1976C14.5829 19.6437 14.7272 19.6431 15.1022 19.6432L15.2465 19.6049C15.381 19.3699 15.3632 18.3292 15.0451 18.2134C15.015 18.2025 14.9564 18.1874 14.9226 18.1806Z" fill="#797572"/>
<path fill-rule="evenodd" clip-rule="evenodd" d="M45.8011 16.9941C47.0457 16.9148 47.3535 17.5814 47.3124 18.76C47.3023 19.0464 47.3407 19.8266 47.1801 20.0336C46.9667 20.1081 46.613 20.0962 46.3771 20.1009C45.8642 20.1003 45.4086 20.1016 44.8961 20.0611C44.8185 19.5601 44.7653 18.0988 44.9699 17.6489C45.1604 17.2312 45.417 17.1392 45.8011 16.9941ZM45.9423 17.8257C45.6513 18.0725 45.6605 18.8464 45.7487 19.1881C45.8642 19.318 46.0684 19.2874 46.2412 19.2876L46.3528 19.26C46.4926 19.0062 46.4658 18.161 46.2568 17.9123C46.1232 17.8369 46.0882 17.8383 45.9423 17.8257Z" fill="#797572"/>
<path fill-rule="evenodd" clip-rule="evenodd" d="M5.74617 16.9535C6.82024 16.9402 7.094 17.6206 7.07219 18.5836C7.06107 19.0734 7.08119 19.5316 7.02104 20.0256L7.00381 20.0288C6.62329 20.0964 6.3883 20.0856 6.00671 20.0886C5.57138 20.0928 5.13591 20.0864 4.70089 20.0694C4.69093 20.0269 4.68212 19.9841 4.67458 19.9411C4.63586 19.7188 4.62449 19.4147 4.62325 19.187C4.61751 18.1395 4.44419 17.1429 5.74617 16.9535ZM5.67187 17.8284C5.4357 18.076 5.42032 18.9263 5.54809 19.22C5.65395 19.3005 5.91524 19.2812 6.06211 19.2813L6.14976 19.2406C6.24145 18.9579 6.34219 17.9233 5.90683 17.8465C5.82489 17.832 5.75495 17.8281 5.67187 17.8284Z" fill="#797572"/>
<path fill-rule="evenodd" clip-rule="evenodd" d="M25.7863 0.00408201C25.9396 -0.00201129 26.1845 -0.0173358 26.3003 0.104266C26.5059 0.320603 26.397 2.90699 26.395 3.34865C27.9007 3.66688 28.3474 4.91426 28.3623 6.32757C28.3646 6.5468 27.9296 6.56131 27.7734 6.5785C27.7673 7.48976 27.7707 8.40118 27.7834 9.31234C28.4009 9.31027 29.1594 9.28133 29.7578 9.38838C30.2129 10.3015 30.4769 11.3605 30.8844 12.2984C31.2294 13.0923 31.5444 13.9044 31.8971 14.6936C32.1484 14.7051 32.4478 14.6996 32.7032 14.7012C32.691 13.9068 32.6564 13.0369 32.7506 12.2524C33.4558 12.2051 34.6419 12.2208 35.3409 12.2764C35.4694 12.9428 35.4275 13.9911 35.4247 14.7042C36.7531 14.7241 38.4863 14.6429 39.7735 14.7534C40.2371 15.4639 41.1134 17.398 41.5401 18.2504C42.2102 16.5786 42.932 14.9179 43.5838 13.2625L46.7291 13.258C47.3104 13.2573 48.0755 13.2323 48.6373 13.2865C48.7573 13.5649 48.8587 13.9201 48.9857 14.2223L50.8498 18.6642C51.1735 19.4506 51.6093 20.6097 52 21.3258C51.832 21.541 51.739 21.6444 51.7011 21.9146C51.5794 22.7885 51.5925 23.6721 51.5996 24.5503L51.6455 27.967C51.6539 28.6931 51.6181 29.4398 51.6111 30.1708C51.6058 31.6416 51.608 33.1125 51.6181 34.5833C51.6234 35.0712 51.7244 37.4836 51.5745 37.808C51.4255 37.9396 51.3553 37.9419 51.138 37.9514C50.4888 37.9798 49.8193 37.9672 49.1684 37.9652L45.6586 37.9529L34.9768 37.9612C34.9721 38.4157 35.0153 38.7635 34.5828 38.9999C33.9088 39.0213 34.1452 36.3356 34.1483 35.8019L26.5288 35.7938L17.7563 35.7979C17.765 36.7453 17.7598 37.6929 17.7405 38.6401C17.616 38.8221 17.5735 38.9099 17.3725 38.9612C17.2296 38.9294 17.1405 38.804 17.0367 38.692C16.994 38.5269 16.9553 38.1623 16.9307 37.9795C13.0462 37.9285 9.09183 37.9622 5.20324 37.9658L2.28402 37.9673C0.180178 37.967 0.343169 38.3375 0.34225 36.2462L0.330576 26.4831L0.33558 23.6402C0.336577 23.0748 0.345693 22.4812 0.300187 21.9171C0.278918 21.6536 0.144522 21.4866 0 21.2643C0.341348 20.7271 0.80618 19.394 1.09068 18.7225L2.51305 15.3338C2.81366 14.634 3.12635 13.9927 3.41583 13.2767C4.08919 13.2298 5.16658 13.2716 5.86162 13.2716C6.61485 13.2715 7.68686 13.2418 8.40283 13.3091C9.04476 14.9567 9.81244 16.5619 10.3707 18.2551C10.9085 17.1005 11.4746 15.8093 12.0853 14.7042C13.4797 14.6679 15.0072 14.6968 16.4128 14.6961C16.4066 13.95 16.3716 13.0021 16.4843 12.2777C16.5118 12.2757 16.5393 12.2739 16.5668 12.2724C19.4382 12.103 19.1863 11.9736 19.1538 14.7015C19.4352 14.7208 19.7082 14.7258 19.9899 14.7319C20.3458 13.8203 20.7044 12.9618 21.1078 12.0547C21.4395 11.3087 21.774 10.0948 22.2546 9.44573C22.4106 9.23532 23.8463 9.31222 24.2216 9.31347C24.2136 8.40619 24.216 7.49872 24.229 6.59152C24.1013 6.56175 23.6427 6.47812 23.6197 6.34323C23.5307 5.81955 23.7208 5.11127 23.9123 4.62953C24.2201 3.85562 24.8409 3.61176 25.5431 3.33714C25.5189 2.76079 25.4846 0.47611 25.6245 0.0140816C25.6783 0.00961842 25.7323 0.00634057 25.7863 0.00408201ZM41.2535 28.9503C41.2474 31.5972 41.1934 34.4632 41.262 37.0952C44.4041 37.0409 47.7672 37.1941 50.8658 37.0773C50.8922 35.399 50.9073 33.7204 50.9108 32.0419C50.9139 31.0518 50.9385 29.9354 50.8591 28.9599L44.5746 28.9688C43.6613 28.9693 42.1028 29.0166 41.2535 28.9503ZM11.4818 37.0822C13.2272 37.0931 15.2406 37.132 16.9776 37.0726C16.977 36.6419 16.983 36.1932 16.9645 35.7644C16.9719 35.4737 16.9808 35.3461 17.0291 35.0576C17.4677 34.9744 17.8364 34.9893 18.2803 34.9931C18.3156 32.9866 18.3251 30.9795 18.3086 28.9728C16.0372 28.9818 13.7656 28.979 11.4942 28.9643L11.4818 37.0822ZM6.57762 28.9684C4.75617 28.9549 2.93456 28.9538 1.1131 28.9652L1.11347 37.0649L7.10999 37.0905C8.23251 37.0931 9.60658 37.1262 10.7178 37.0737C10.717 34.3789 10.7764 31.6789 10.7187 28.9824C9.33703 28.949 7.95926 28.9702 6.57762 28.9684ZM40.461 28.9633C38.3089 28.927 36.1063 28.9617 33.9463 28.949C33.8142 28.9574 33.7209 28.9392 33.6274 29.0064C33.5693 29.5107 33.5885 30.1325 33.5756 30.6501C33.5395 32.0932 33.6302 33.5562 33.6152 34.9933C34.0133 35.0074 34.5569 35.014 34.9331 35.1033C35.0068 35.5819 34.9859 36.5678 34.9857 37.0886C36.7368 37.0898 38.5321 37.1067 40.2808 37.0858L40.4365 37.0698C40.5106 36.9662 40.496 29.7265 40.461 28.9633ZM20.2687 20.5941C19.9613 20.5928 19.4088 20.6139 19.1206 20.5932C19.0757 21.8697 19.0514 23.147 19.0476 24.4243C19.0523 25.5104 19.1012 26.5979 19.1056 27.6815L19.1139 34.9997C20.8085 35.0251 22.5034 35.0249 24.198 34.9993C24.2049 34.1447 24.2046 33.2899 24.1969 32.4353C24.1937 31.9049 24.1342 30.9591 24.2675 30.4725C24.6215 29.1813 26.3255 28.7542 27.2422 29.6909C27.4647 29.9182 27.6225 30.203 27.6987 30.5144C27.817 31.0082 27.7507 33.8326 27.7575 34.5072L27.7634 34.9961C29.4406 35.0015 31.1927 34.9725 32.859 34.9982L32.8631 27.7583C32.8815 25.3792 32.9629 22.9633 32.8269 20.582L23.427 20.5809L20.2687 20.5941ZM25.8859 30.0569C25.8654 30.0573 25.8448 30.058 25.8242 30.059C25.5755 30.1443 25.3258 30.2504 25.2001 30.5023C24.9716 30.9612 25.0966 34.2638 25.1018 35.0168L26.1313 35.008L26.8836 35.0068L26.8879 32.3851C26.8885 31.4869 27.1468 30.0305 25.8859 30.0569ZM18.3194 21.818C16.1091 21.7552 13.7039 21.7762 11.4842 21.7889C11.4653 23.8828 11.4661 25.9771 11.4866 28.0709L16.118 28.0787C16.5761 28.0786 17.9012 28.1089 18.2768 28.064C18.2725 26.2941 18.4201 24.5423 18.3396 22.7721C18.3253 22.4584 18.3263 22.1332 18.3194 21.818ZM50.8839 21.8035C47.6941 21.7574 44.4477 21.7898 41.2524 21.7922C41.2383 23.8871 41.238 25.9822 41.2516 28.0772C44.3678 28.0467 47.7951 28.0123 50.9002 28.083C50.8173 26.0778 50.9377 23.8761 50.8839 21.8035ZM10.7182 21.7901C7.51526 21.7665 4.31213 21.7653 1.10921 21.7867C1.09218 23.8832 1.09184 25.98 1.10847 28.0766L7.49801 28.0711C8.52983 28.0701 9.6991 28.0975 10.7213 28.0666C10.7097 25.9749 10.7465 23.881 10.7182 21.7901ZM33.8646 21.8073C33.7356 21.822 33.6674 21.8037 33.593 21.8799C33.479 23.6429 33.5578 26.2926 33.6141 28.0792L40.2875 28.0634L40.4474 28.0477C40.5187 27.9397 40.4851 22.4412 40.4602 21.7963L33.8646 21.8073ZM32.2297 15.5955C32.5182 16.0484 33.0078 17.337 33.2283 17.8944C33.5597 18.7321 33.8193 19.2763 34.231 20.0851L34.221 20.1026C33.9953 20.493 33.648 20.5255 33.6174 20.8348L33.6576 20.8914C34.4486 20.984 36.2836 20.9345 37.1324 20.9333C37.9205 20.9322 39.6961 20.9827 40.4345 20.908C40.6312 20.3062 40.798 19.8529 41.0669 19.2709C40.7229 18.3815 40.2756 17.5856 39.8396 16.7431C39.6554 16.387 39.4695 15.9278 39.2832 15.5934L32.2297 15.5955ZM12.5515 15.5898C12.3175 16.139 12.1074 16.6213 11.8492 17.1548C11.5541 17.7647 11.0687 18.5939 10.897 19.2304C11.1249 19.789 11.3471 20.3501 11.5637 20.9133C12.2913 20.9507 17.963 20.9898 18.2988 20.8501L18.3435 20.7654C18.1533 20.6312 17.8249 20.4495 17.7809 20.1994C17.7197 19.8494 19.4305 16.074 19.7028 15.5994L12.5515 15.5898ZM48.0953 14.1638C46.7869 14.1522 45.4779 14.1508 44.1694 14.1599C43.825 14.6772 43.2727 16.2888 42.9931 16.9558L41.854 19.6509C41.6806 20.0568 41.4441 20.5225 41.3009 20.9296L47.9282 20.935C48.8693 20.9348 49.885 20.952 50.8204 20.9305C50.6365 20.3458 50.3295 19.6924 50.086 19.1177L49.0228 16.5771C48.6934 15.8022 48.4173 14.9536 48.0953 14.1638ZM7.84155 14.1574C6.5593 14.15 5.27697 14.1507 3.99471 14.1593C3.65618 14.5655 3.28116 15.7682 3.04745 16.3207L1.75406 19.4055C1.55322 19.8883 1.29481 20.4404 1.12589 20.9239L7.70758 20.932L10.5651 20.9284C10.0603 19.4421 9.4202 17.9275 8.80345 16.4865C8.47129 15.7105 8.24983 14.9083 7.84155 14.1574ZM25.8808 17.3346C24.8666 17.8634 24.2023 18.1184 23.1598 18.5363C22.1998 18.921 21.3649 19.3841 20.3438 19.6847C20.9887 19.7322 21.7953 19.7154 22.4531 19.7139L26.0905 19.7019C27.8447 19.7039 29.8399 19.7519 31.5702 19.7009C30.1623 19.1826 28.7953 18.4846 27.3848 17.9597C27.025 17.8257 26.1934 17.3515 25.8808 17.3346ZM28.3319 10.1795C26.4826 10.1961 24.6332 10.2001 22.7838 10.1914C21.5846 13.2548 20.3344 16.2974 19.0341 19.3177C19.5993 19.1541 20.2061 18.8311 20.757 18.5957L24.3339 17.0852C24.9321 16.8839 25.4053 16.6685 25.9732 16.4581C28.2918 17.3889 30.5964 18.3555 32.8862 19.3574C32.6216 18.6143 32.2854 17.9364 31.9964 17.2099L29.132 10.1834L28.3319 10.1795ZM17.2748 13.1244C17.2643 13.6487 17.2606 14.1732 17.2635 14.6976L18.2586 14.7072C18.252 14.1842 18.2525 13.6416 18.2308 13.1205L17.2748 13.1244ZM33.4788 13.1125C33.4689 13.632 33.4488 14.1852 33.459 14.7021L34.5358 14.701C34.5035 14.1942 34.5155 13.6313 34.5156 13.1197L33.4788 13.1125ZM25.1081 6.56813C25.1067 7.47912 25.0991 8.39806 25.1081 9.30838L26.8717 9.30574L26.8703 6.57548L25.1081 6.56813ZM25.7003 4.15106C25.1526 4.3181 24.9397 4.66069 24.6111 5.11668C24.5398 5.21563 24.4761 5.34733 24.4643 5.47101C24.4989 5.58015 24.5289 5.6443 24.6622 5.65402C25.1974 5.69281 25.7832 5.66714 26.3184 5.66552C26.7079 5.6644 27.1239 5.67127 27.5108 5.66081C27.2702 4.61161 26.7709 4.12132 25.7003 4.15106Z" fill="#797572"/>
<path d="M19.5839 38.3978C19.6745 37.8667 20.8499 38.0202 21.2547 38.022L23.5828 38.0303L31.271 38.0197C31.5709 38.0237 31.9996 37.998 32.2477 38.1648C32.7709 39.0069 30.7499 38.8105 30.4071 38.8065C29.7402 38.7995 29.0732 38.7979 28.4062 38.8016L20.883 38.8078C20.5213 38.8182 19.6684 38.9021 19.5839 38.3978Z" fill="#797572"/>
<path d="M20.7476 36.5317C21.9858 36.4823 23.5072 36.5275 24.7715 36.5294L30.5194 36.5098C30.8035 36.5105 31.1171 36.5137 31.3282 36.7298C31.4268 37.0209 31.3509 37.1253 31.089 37.2309C30.4082 37.2637 29.6274 37.2426 28.9373 37.2418L25.28 37.2401C23.8921 37.2395 22.5001 37.218 21.1135 37.2809C20.5112 37.3082 20.2615 36.7194 20.7476 36.5317Z" fill="#797572"/>
</svg>
